<?xml version="1.0" encoding="utf-8"?>
<!-- Generator: Adobe Illustrator 19.0.0, SVG Export Plug-In . SVG Version: 6.00 Build 0)  -->
<svg version="1.1" id="Capa_1" xmlns="http://www.w3.org/2000/svg" xmlns:xlink="http://www.w3.org/1999/xlink" x="0px" y="0px"
	 viewBox="294 -287 623 608" style="enable-background:new 294 -287 623 608;" xml:space="preserve">

<style type="text/css">

	<![CDATA[
	#mario{
		animation: gamover 3s both;
		transform-origin: center;
	}
	@keyframes gamover {
		0%{
			transform: translateY(0px);
		}
		10%{
			transform: translateY(0px);
		}
		25%{
			transform: translateY(-200px)
		}
		30%{
			transform: translateY(-200px)
		}
		100%{
			transform: translateY(200px)
		}

	}
	]]>
	.st0{clip-path:url(#SVGID_2_);}
	.st1{fill:#02448E;}
	.st2{fill:#02448D;}
	.st3{fill:#03448D;}
	.st4{fill:#00428D;}
	.st5{fill:#01438D;}
	.st6{fill:#576B9D;}
	.st7{fill:#566B9D;}
	.st8{fill:#556A9D;}
	.st9{fill:#00438D;}
	.st10{fill:#596D9E;}
	.st11{fill:#586B9E;}
	.st12{fill:#04458E;}
	.st13{fill:#DFE2E8;}
	.st14{fill:#CDD1DC;}
	.st15{fill:#0E478F;}
	.st16{fill:#D3D6E0;}
	.st17{fill:#CFD2DD;}
	.st18{fill:#CED1DC;}
	.st19{fill:#7686AF;}
	.st20{fill:#486198;}
	.st21{fill:#03458E;}
	.st22{fill:#D1D4DF;}
	.st23{fill:#6E80AC;}
	.st24{fill:#FFFFFF;}
	.st25{clip-path:url(#SVGID_4_);}
	.st26{fill:#315495;}
	.st27{fill:#ACB2C7;}
	.st28{fill:#8B96B6;}
	.st29{fill:#A6ADC4;}
	.st30{fill:#E2E5EB;}
	.st31{fill:#B9BED1;}
	.st32{fill:#ECEDF1;}
	.st33{fill:#CCCFDB;}
	.st34{fill:#A3ABC2;}
	.st35{fill:#164C8F;}
	.st36{fill:#5E71A0;}
	.st37{fill:#8994B4;}
	.st38{fill:#3C5996;}
	.st39{fill:#305495;}
	.st40{fill:#949EBA;}
	.st41{fill:#315595;}
	.st42{fill:#8F99B8;}
	.st43{fill:#A7AFC5;}
	.st44{fill:#335695;}
	.st45{fill:#5D71A0;}
	.st46{fill:#A1A9C1;}
	.st47{fill:#606980;}
	.st48{fill:#385896;}
	.st49{fill:#4867A0;}
	.st50{fill:#5673A8;}
	.st51{fill:#5370A6;}
	.st52{fill:#6A7CA8;}
	.st53{fill:#7486B0;}
	.st54{fill:#121832;}
</style>

<g id="texto">
	<path class="st24" d="M453.3-184.7l47.4,2.1v53.7l-42.3,2.7l8.1,54.9l-77.1,8.1l-1.2-63h-91.8l-1.2-55.8l61.2-104.1l83.7,5.7
		L453.3-184.7z M358.8-184.7h26.7l-2.4-31.2L358.8-184.7z M636.5-281.6l51.3,60.3L671.3-89l-81.9,26.7l-66.3-66.6l13.5-114.9
		l46.2-40.8L636.5-281.6z M599.3-208.4l-6.6,49.2l13.2,11.1l14.4-10.2l-2.7-42.3L599.3-208.4z M847.3-184.7l47.4,2.1v53.7l-42.3,2.7
		l8.1,54.9l-77.1,8.1l-1.2-63h-91.8l-1.2-55.8l61.2-104.1l83.7,5.7L847.3-184.7z M752.8-184.7h26.7l-2.4-31.2L752.8-184.7z"/>
	<path class="st24" d="M474.4-21.5l-8.6,4.8l-3.4-1.9l-5.1,1.5l-3,7.3l3.2,6.8l9.2-1.1l0.2-1.6l-7.1,0.6l0.9-10l14.8,0.2V4.7
		l-24.9,3.2L443-7.5l2.8-14.1l10.6-7.7l13,0.9L474.4-21.5z M498.8-29l15.8,34.4l-15.1,2.4L498.3-1l-12.1-0.3l-2.8,9.5l-14.5-2.6
		L488.8-28L498.8-29z M491.4-16l-2.1,5.1l7.7,0.2l-1.8-5.1L491.4-16z M512.3,4.2l17.8-33.1h10.6l3.5,10l6.2-10l9.4-0.2l10.3,36
		L556.6,8l-2.5-9.1L551-10l-9.2,8.2l-7.1-9.4l-8.4,18L512.3,4.2z M572.8-29.3h24.5l-2,10.4l-12,1.9l-0.2,2.5l10.7,0.8l-0.5,8
		l-9.5,0.9l0.8,2.7l11.5,0.1l4.3,10h-27.5L570.1-16L572.8-29.3z M649.9-28.6l10.9,13.5l-3.1,17.9l-19.8,5.1L622.2-6l2.3-15.6
		l11.8-7.5L649.9-28.6z M639.2-16l-2.6,5.7l4.4,3l4.7-1.7l-0.3-5.5L639.2-16z M661.7-29.3l13,0.7l5.2,22.3l1.9-2.5l5.6-19.8
		l14.3-0.7L687.6,7.9l-17.4-1.3L661.7-29.3z M706.6-29.3h24.5l-2,10.4L717-17l-0.2,2.5l10.7,0.8l-0.5,8l-9.5,0.9l0.8,2.7l11.6,0.1
		l4.3,10h-27.6L703.9-16L706.6-29.3z M753.3-29l9.3,6.8l0.8,11.7l-5.2,5.8l9.3,8.1l-10.8,4.7l-11.4-9.7L747,8h-11.5l-2.9-35.4
		L753.3-29z M745.3-18.6l-0.3,7.1l3,0.4l3.1-4.4L745.3-18.6z"/>
	<path class="st24" d="M503.9,23.8h4.7c1.1,0,2,0.2,2.7,0.5c0.7,0.3,1.3,0.8,1.7,1.4c0.4,0.6,0.6,1.4,0.6,2.3c0,0.7-0.1,1.2-0.4,1.8
		c-0.3,0.5-0.6,1-1.1,1.4c-0.5,0.4-1.1,0.6-1.8,0.8l-0.5,0.2h-4.4l0-1.5h3.3c0.7,0,1.2-0.1,1.7-0.4c0.4-0.2,0.8-0.6,1-1
		c0.2-0.4,0.3-0.9,0.3-1.3c0-0.5-0.1-1-0.3-1.4c-0.2-0.4-0.6-0.7-1-0.9c-0.5-0.2-1-0.3-1.8-0.3h-2.8V38h-1.9V23.8z M512.2,38
		l-3.5-6.4l2,0l3.5,6.3V38H512.2z M520.4,38.2c-0.7,0-1.4-0.1-2-0.4c-0.6-0.3-1.1-0.6-1.5-1.1c-0.4-0.5-0.7-1-1-1.6
		c-0.2-0.6-0.3-1.3-0.3-2.1v-0.4c0-0.9,0.1-1.6,0.4-2.3c0.3-0.7,0.6-1.3,1-1.7c0.4-0.5,0.9-0.8,1.5-1.1c0.6-0.2,1.1-0.4,1.7-0.4
		c0.8,0,1.4,0.1,2,0.4c0.6,0.3,1,0.6,1.4,1.1c0.4,0.5,0.6,1,0.8,1.6c0.2,0.6,0.3,1.3,0.3,2.1v0.8h-7.9v-1.5h6.1v-0.1
		c0-0.5-0.1-0.9-0.3-1.4c-0.2-0.4-0.4-0.8-0.8-1.1c-0.4-0.3-0.8-0.4-1.5-0.4c-0.4,0-0.8,0.1-1.1,0.3c-0.3,0.2-0.6,0.4-0.9,0.8
		c-0.2,0.3-0.4,0.8-0.6,1.2c-0.1,0.5-0.2,1.1-0.2,1.7v0.4c0,0.5,0.1,1,0.2,1.4c0.1,0.4,0.3,0.8,0.6,1.2c0.3,0.3,0.6,0.6,1,0.8
		c0.4,0.2,0.8,0.3,1.3,0.3c0.6,0,1.2-0.1,1.6-0.4c0.4-0.3,0.8-0.6,1.2-1l1.1,0.9c-0.2,0.3-0.5,0.7-0.9,1c-0.4,0.3-0.8,0.6-1.3,0.8
		C521.7,38.1,521.1,38.2,520.4,38.2z M530.8,36.7c0.4,0,0.8-0.1,1.2-0.3c0.4-0.2,0.7-0.4,0.9-0.7c0.2-0.3,0.4-0.7,0.4-1.1h1.7
		c0,0.6-0.2,1.2-0.6,1.7c-0.4,0.5-0.9,1-1.5,1.3c-0.6,0.3-1.3,0.5-2.1,0.5c-0.8,0-1.5-0.1-2.1-0.4c-0.6-0.3-1.1-0.7-1.5-1.2
		c-0.4-0.5-0.7-1-0.9-1.7c-0.2-0.6-0.3-1.3-0.3-2v-0.4c0-0.7,0.1-1.4,0.3-2c0.2-0.6,0.5-1.2,0.9-1.7c0.4-0.5,0.9-0.9,1.5-1.2
		c0.6-0.3,1.3-0.4,2.1-0.4c0.8,0,1.5,0.2,2.2,0.5c0.6,0.3,1.1,0.8,1.5,1.4c0.4,0.6,0.6,1.2,0.6,2h-1.7c0-0.4-0.2-0.8-0.4-1.2
		c-0.2-0.4-0.5-0.6-0.9-0.8c-0.4-0.2-0.8-0.3-1.3-0.3c-0.6,0-1,0.1-1.4,0.3c-0.4,0.2-0.7,0.5-0.9,0.9c-0.2,0.4-0.4,0.8-0.5,1.2
		c-0.1,0.4-0.1,0.9-0.1,1.4v0.4c0,0.5,0,0.9,0.1,1.4c0.1,0.4,0.2,0.9,0.5,1.2c0.2,0.4,0.5,0.7,0.9,0.9
		C529.8,36.6,530.3,36.7,530.8,36.7z M543.5,35.6v-8.1h1.8V38h-1.7L543.5,35.6z M543.9,33.3l0.8,0c0,0.7-0.1,1.4-0.2,2
		c-0.1,0.6-0.4,1.1-0.7,1.5c-0.3,0.4-0.8,0.8-1.3,1c-0.5,0.2-1.2,0.4-1.9,0.4c-0.5,0-1-0.1-1.4-0.2c-0.4-0.1-0.8-0.4-1.1-0.7
		c-0.3-0.3-0.5-0.7-0.7-1.2c-0.2-0.5-0.2-1.1-0.2-1.8v-6.8h1.8v6.8c0,0.5,0.1,0.9,0.2,1.2c0.1,0.3,0.3,0.6,0.4,0.7
		c0.2,0.2,0.4,0.3,0.6,0.4c0.2,0.1,0.5,0.1,0.7,0.1c0.8,0,1.4-0.1,1.8-0.4c0.4-0.3,0.8-0.7,1-1.2C543.8,34.5,543.9,34,543.9,33.3z
		 M549.9,29.1V38h-1.8V27.4h1.8L549.9,29.1z M553.2,27.4l0,1.7c-0.1,0-0.3-0.1-0.4-0.1c-0.1,0-0.3,0-0.4,0c-0.4,0-0.8,0.1-1.1,0.2
		s-0.6,0.3-0.8,0.5c-0.2,0.2-0.4,0.5-0.5,0.8c-0.1,0.3-0.2,0.7-0.2,1.1l-0.5,0.3c0-0.6,0.1-1.2,0.2-1.8c0.1-0.6,0.3-1.1,0.6-1.5
		c0.3-0.4,0.6-0.8,1-1c0.4-0.2,0.9-0.4,1.5-0.4c0.1,0,0.3,0,0.5,0C553,27.3,553.1,27.3,553.2,27.4z M561,35.2c0-0.3-0.1-0.5-0.2-0.7
		c-0.1-0.2-0.3-0.4-0.7-0.6c-0.3-0.2-0.9-0.4-1.6-0.5c-0.6-0.1-1.1-0.3-1.6-0.4c-0.5-0.2-0.9-0.4-1.2-0.6c-0.3-0.2-0.6-0.5-0.8-0.8
		c-0.2-0.3-0.3-0.7-0.3-1.1c0-0.4,0.1-0.8,0.3-1.2c0.2-0.4,0.5-0.7,0.8-1c0.3-0.3,0.8-0.5,1.2-0.7c0.5-0.2,1-0.2,1.6-0.2
		c0.8,0,1.6,0.1,2.2,0.4c0.6,0.3,1.1,0.7,1.4,1.2c0.3,0.5,0.5,1,0.5,1.6h-1.8c0-0.3-0.1-0.6-0.3-0.9c-0.2-0.3-0.4-0.5-0.8-0.7
		c-0.3-0.2-0.7-0.3-1.2-0.3c-0.5,0-0.9,0.1-1.2,0.2c-0.3,0.1-0.5,0.3-0.7,0.6c-0.1,0.2-0.2,0.5-0.2,0.7c0,0.2,0,0.4,0.1,0.5
		c0.1,0.1,0.2,0.3,0.4,0.4c0.2,0.1,0.4,0.2,0.7,0.4c0.3,0.1,0.7,0.2,1.2,0.3c0.9,0.2,1.6,0.4,2.1,0.7c0.6,0.3,1,0.6,1.3,1
		c0.3,0.4,0.4,0.9,0.4,1.4c0,0.5-0.1,0.9-0.3,1.3c-0.2,0.4-0.5,0.7-0.8,1c-0.4,0.3-0.8,0.5-1.3,0.6c-0.5,0.1-1.1,0.2-1.7,0.2
		c-0.9,0-1.7-0.2-2.4-0.5c-0.6-0.3-1.1-0.8-1.5-1.3c-0.3-0.5-0.5-1.1-0.5-1.7h1.8c0,0.5,0.2,0.9,0.4,1.2c0.3,0.3,0.6,0.5,1,0.6
		c0.4,0.1,0.8,0.2,1.1,0.2c0.5,0,0.9-0.1,1.2-0.2c0.3-0.1,0.6-0.3,0.8-0.5C560.9,35.8,561,35.5,561,35.2z M564.7,32.8v-0.2
		c0-0.8,0.1-1.5,0.3-2.1c0.2-0.7,0.5-1.2,1-1.7c0.4-0.5,0.9-0.9,1.5-1.1c0.6-0.3,1.3-0.4,2-0.4c0.7,0,1.4,0.1,2,0.4
		c0.6,0.3,1.1,0.6,1.5,1.1c0.4,0.5,0.7,1.1,1,1.7c0.2,0.7,0.3,1.4,0.3,2.1v0.2c0,0.8-0.1,1.5-0.3,2.1c-0.2,0.7-0.5,1.2-1,1.7
		c-0.4,0.5-0.9,0.9-1.5,1.1c-0.6,0.3-1.3,0.4-2,0.4c-0.7,0-1.4-0.1-2-0.4c-0.6-0.3-1.1-0.7-1.5-1.1c-0.4-0.5-0.7-1.1-1-1.7
		C564.8,34.3,564.7,33.6,564.7,32.8z M566.5,32.6v0.2c0,0.5,0.1,1,0.2,1.5c0.1,0.5,0.3,0.9,0.6,1.2c0.3,0.4,0.6,0.6,0.9,0.8
		c0.4,0.2,0.8,0.3,1.3,0.3c0.5,0,0.9-0.1,1.3-0.3c0.4-0.2,0.7-0.5,0.9-0.8c0.2-0.4,0.4-0.8,0.6-1.2c0.1-0.5,0.2-1,0.2-1.5v-0.2
		c0-0.5-0.1-1-0.2-1.5c-0.1-0.5-0.3-0.9-0.6-1.2c-0.2-0.4-0.6-0.7-0.9-0.9c-0.4-0.2-0.8-0.3-1.3-0.3c-0.5,0-0.9,0.1-1.3,0.3
		c-0.4,0.2-0.7,0.5-0.9,0.9c-0.2,0.4-0.4,0.8-0.6,1.2C566.6,31.6,566.5,32.1,566.5,32.6z M583.4,29.7V38h-1.8V27.4h1.7L583.4,29.7z
		 M583,32.3l-0.8,0c0-0.7,0.1-1.4,0.3-2c0.2-0.6,0.5-1.2,0.9-1.6c0.4-0.5,0.8-0.8,1.3-1.1c0.5-0.3,1.1-0.4,1.7-0.4
		c0.5,0,1,0.1,1.4,0.2c0.4,0.1,0.8,0.4,1.1,0.7c0.3,0.3,0.5,0.7,0.7,1.2c0.2,0.5,0.2,1.1,0.2,1.8V38h-1.8v-6.9c0-0.6-0.1-1-0.2-1.3
		c-0.2-0.3-0.4-0.6-0.7-0.7c-0.3-0.2-0.7-0.2-1.2-0.2c-0.4,0-0.9,0.1-1.2,0.3c-0.4,0.2-0.7,0.4-0.9,0.8c-0.3,0.3-0.5,0.7-0.6,1.1
		C583,31.4,583,31.8,583,32.3z M592.2,32.8v-0.2c0-0.8,0.1-1.5,0.3-2.1c0.2-0.7,0.5-1.2,1-1.7c0.4-0.5,0.9-0.9,1.5-1.1
		c0.6-0.3,1.3-0.4,2-0.4c0.7,0,1.4,0.1,2,0.4c0.6,0.3,1.1,0.6,1.5,1.1c0.4,0.5,0.7,1.1,1,1.7c0.2,0.7,0.3,1.4,0.3,2.1v0.2
		c0,0.8-0.1,1.5-0.3,2.1c-0.2,0.7-0.5,1.2-1,1.7c-0.4,0.5-0.9,0.9-1.5,1.1c-0.6,0.3-1.3,0.4-2,0.4c-0.7,0-1.4-0.1-2-0.4
		c-0.6-0.3-1.1-0.7-1.5-1.1c-0.4-0.5-0.7-1.1-1-1.7C592.3,34.3,592.2,33.6,592.2,32.8z M594,32.6v0.2c0,0.5,0.1,1,0.2,1.5
		c0.1,0.5,0.3,0.9,0.6,1.2c0.3,0.4,0.6,0.6,0.9,0.8c0.4,0.2,0.8,0.3,1.3,0.3c0.5,0,0.9-0.1,1.3-0.3c0.4-0.2,0.7-0.5,0.9-0.8
		c0.2-0.4,0.4-0.8,0.6-1.2c0.1-0.5,0.2-1,0.2-1.5v-0.2c0-0.5-0.1-1-0.2-1.5c-0.1-0.5-0.3-0.9-0.6-1.2c-0.2-0.4-0.6-0.7-0.9-0.9
		c-0.4-0.2-0.8-0.3-1.3-0.3c-0.5,0-0.9,0.1-1.3,0.3c-0.4,0.2-0.7,0.5-0.9,0.9c-0.2,0.4-0.4,0.8-0.6,1.2C594,31.6,594,32.1,594,32.6z
		 M613.4,38.2c-0.7,0-1.4-0.1-2-0.4c-0.6-0.3-1.1-0.6-1.5-1.1c-0.4-0.5-0.7-1-1-1.6c-0.2-0.6-0.3-1.3-0.3-2.1v-0.4
		c0-0.9,0.1-1.6,0.4-2.3c0.3-0.7,0.6-1.3,1-1.7c0.4-0.5,0.9-0.8,1.5-1.1c0.6-0.2,1.1-0.4,1.7-0.4c0.8,0,1.4,0.1,2,0.4
		c0.6,0.3,1,0.6,1.4,1.1c0.4,0.5,0.6,1,0.8,1.6c0.2,0.6,0.3,1.3,0.3,2.1v0.8h-7.9v-1.5h6.1v-0.1c0-0.5-0.1-0.9-0.3-1.4
		c-0.2-0.4-0.4-0.8-0.8-1.1c-0.4-0.3-0.8-0.4-1.5-0.4c-0.4,0-0.8,0.1-1.1,0.3c-0.3,0.2-0.6,0.4-0.9,0.8c-0.2,0.3-0.4,0.8-0.6,1.2
		c-0.1,0.5-0.2,1.1-0.2,1.7v0.4c0,0.5,0.1,1,0.2,1.4c0.1,0.4,0.3,0.8,0.6,1.2c0.3,0.3,0.6,0.6,1,0.8c0.4,0.2,0.8,0.3,1.3,0.3
		c0.6,0,1.2-0.1,1.6-0.4c0.4-0.3,0.8-0.6,1.2-1l1.1,0.9c-0.2,0.3-0.5,0.7-0.9,1c-0.4,0.3-0.8,0.6-1.3,0.8
		C614.7,38.1,614.1,38.2,613.4,38.2z M621.4,29.7V38h-1.8V27.4h1.7L621.4,29.7z M621,32.3l-0.8,0c0-0.7,0.1-1.4,0.3-2
		c0.2-0.6,0.5-1.2,0.9-1.6c0.4-0.5,0.8-0.8,1.3-1.1c0.5-0.3,1.1-0.4,1.7-0.4c0.5,0,1,0.1,1.4,0.2c0.4,0.1,0.8,0.4,1.1,0.7
		c0.3,0.3,0.5,0.7,0.7,1.2c0.2,0.5,0.2,1.1,0.2,1.8V38h-1.8v-6.9c0-0.6-0.1-1-0.2-1.3c-0.2-0.3-0.4-0.6-0.7-0.7
		c-0.3-0.2-0.7-0.2-1.2-0.2c-0.4,0-0.9,0.1-1.2,0.3c-0.4,0.2-0.7,0.4-0.9,0.8c-0.3,0.3-0.5,0.7-0.6,1.1C621,31.4,621,31.8,621,32.3z
		 M634.9,36.7c0.4,0,0.8-0.1,1.2-0.3c0.4-0.2,0.7-0.4,0.9-0.7c0.2-0.3,0.4-0.7,0.4-1.1h1.7c0,0.6-0.2,1.2-0.6,1.7
		c-0.4,0.5-0.9,1-1.5,1.3c-0.6,0.3-1.3,0.5-2.1,0.5c-0.8,0-1.5-0.1-2.1-0.4c-0.6-0.3-1.1-0.7-1.5-1.2c-0.4-0.5-0.7-1-0.9-1.7
		c-0.2-0.6-0.3-1.3-0.3-2v-0.4c0-0.7,0.1-1.4,0.3-2c0.2-0.6,0.5-1.2,0.9-1.7c0.4-0.5,0.9-0.9,1.5-1.2c0.6-0.3,1.3-0.4,2.1-0.4
		c0.8,0,1.5,0.2,2.2,0.5c0.6,0.3,1.1,0.8,1.5,1.4c0.4,0.6,0.6,1.2,0.6,2h-1.7c0-0.4-0.2-0.8-0.4-1.2c-0.2-0.4-0.5-0.6-0.9-0.8
		c-0.4-0.2-0.8-0.3-1.3-0.3c-0.6,0-1,0.1-1.4,0.3c-0.4,0.2-0.7,0.5-0.9,0.9c-0.2,0.4-0.4,0.8-0.5,1.2c-0.1,0.4-0.1,0.9-0.1,1.4v0.4
		c0,0.5,0,0.9,0.1,1.4c0.1,0.4,0.2,0.9,0.5,1.2c0.2,0.4,0.5,0.7,0.9,0.9C633.9,36.6,634.3,36.7,634.9,36.7z M640.6,32.8v-0.2
		c0-0.8,0.1-1.5,0.3-2.1c0.2-0.7,0.5-1.2,1-1.7c0.4-0.5,0.9-0.9,1.5-1.1c0.6-0.3,1.3-0.4,2-0.4c0.7,0,1.4,0.1,2,0.4
		c0.6,0.3,1.1,0.6,1.5,1.1c0.4,0.5,0.7,1.1,1,1.7c0.2,0.7,0.3,1.4,0.3,2.1v0.2c0,0.8-0.1,1.5-0.3,2.1c-0.2,0.7-0.5,1.2-1,1.7
		c-0.4,0.5-0.9,0.9-1.5,1.1c-0.6,0.3-1.3,0.4-2,0.4s-1.4-0.1-2-0.4c-0.6-0.3-1.1-0.7-1.5-1.1c-0.4-0.5-0.7-1.1-1-1.7
		C640.8,34.3,640.6,33.6,640.6,32.8z M642.5,32.6v0.2c0,0.5,0.1,1,0.2,1.5c0.1,0.5,0.3,0.9,0.6,1.2c0.3,0.4,0.6,0.6,0.9,0.8
		c0.4,0.2,0.8,0.3,1.3,0.3c0.5,0,0.9-0.1,1.3-0.3c0.4-0.2,0.7-0.5,0.9-0.8c0.2-0.4,0.4-0.8,0.6-1.2c0.1-0.5,0.2-1,0.2-1.5v-0.2
		c0-0.5-0.1-1-0.2-1.5c-0.1-0.5-0.3-0.9-0.6-1.2c-0.2-0.4-0.6-0.7-0.9-0.9c-0.4-0.2-0.8-0.3-1.3-0.3c-0.5,0-0.9,0.1-1.3,0.3
		c-0.4,0.2-0.7,0.5-0.9,0.9c-0.2,0.4-0.4,0.8-0.6,1.2C642.5,31.6,642.5,32.1,642.5,32.6z M654.3,29.7V38h-1.8V27.4h1.7L654.3,29.7z
		 M653.9,32.3l-0.8,0c0-0.7,0.1-1.4,0.3-2c0.2-0.6,0.5-1.2,0.9-1.6c0.4-0.5,0.8-0.8,1.3-1.1c0.5-0.3,1.1-0.4,1.7-0.4
		c0.5,0,1,0.1,1.4,0.2c0.4,0.1,0.8,0.4,1.1,0.7c0.3,0.3,0.5,0.7,0.7,1.2c0.2,0.5,0.2,1.1,0.2,1.8V38H659v-6.9c0-0.6-0.1-1-0.2-1.3
		c-0.2-0.3-0.4-0.6-0.7-0.7c-0.3-0.2-0.7-0.2-1.2-0.2c-0.4,0-0.9,0.1-1.2,0.3c-0.4,0.2-0.7,0.4-0.9,0.8c-0.3,0.3-0.5,0.7-0.6,1.1
		C654,31.4,653.9,31.8,653.9,32.3z M668,27.4v1.4h-5.7v-1.4H668z M664.2,24.9h1.8v10.5c0,0.4,0.1,0.6,0.2,0.8
		c0.1,0.2,0.3,0.3,0.4,0.4c0.2,0.1,0.4,0.1,0.6,0.1c0.2,0,0.3,0,0.5,0c0.2,0,0.3-0.1,0.4-0.1l0,1.5c-0.1,0-0.3,0.1-0.6,0.1
		c-0.2,0-0.5,0.1-0.8,0.1c-0.4,0-0.8-0.1-1.2-0.3c-0.4-0.2-0.7-0.5-0.9-0.9c-0.2-0.4-0.3-1-0.3-1.7V24.9z M671.9,29.1V38h-1.8V27.4
		h1.8L671.9,29.1z M675.2,27.4l0,1.7c-0.1,0-0.3-0.1-0.4-0.1c-0.1,0-0.3,0-0.4,0c-0.4,0-0.8,0.1-1.1,0.2c-0.3,0.1-0.6,0.3-0.8,0.5
		c-0.2,0.2-0.4,0.5-0.5,0.8c-0.1,0.3-0.2,0.7-0.2,1.1l-0.5,0.3c0-0.6,0.1-1.2,0.2-1.8c0.1-0.6,0.3-1.1,0.6-1.5c0.3-0.4,0.6-0.8,1-1
		c0.4-0.2,0.9-0.4,1.5-0.4c0.1,0,0.3,0,0.4,0C675.1,27.3,675.2,27.3,675.2,27.4z M682.7,36.2v-5.4c0-0.4-0.1-0.8-0.3-1.1
		c-0.2-0.3-0.4-0.6-0.7-0.7c-0.3-0.2-0.7-0.3-1.2-0.3c-0.5,0-0.9,0.1-1.2,0.2c-0.3,0.2-0.6,0.4-0.8,0.6c-0.2,0.3-0.3,0.5-0.3,0.8
		h-1.8c0-0.4,0.1-0.8,0.3-1.1c0.2-0.4,0.5-0.7,0.8-1c0.4-0.3,0.8-0.5,1.3-0.7c0.5-0.2,1.1-0.3,1.7-0.3c0.8,0,1.4,0.1,2,0.4
		c0.6,0.3,1.1,0.7,1.4,1.2c0.3,0.5,0.5,1.2,0.5,2v4.9c0,0.4,0,0.7,0.1,1.1c0.1,0.4,0.2,0.7,0.3,1V38H683c-0.1-0.2-0.2-0.5-0.2-0.8
		C682.8,36.8,682.7,36.5,682.7,36.2z M683.1,31.6l0,1.3h-1.8c-0.5,0-1,0-1.4,0.1c-0.4,0.1-0.7,0.2-1,0.4c-0.3,0.2-0.5,0.4-0.6,0.6
		c-0.1,0.2-0.2,0.5-0.2,0.8c0,0.3,0.1,0.6,0.2,0.9c0.2,0.3,0.4,0.5,0.7,0.7c0.3,0.2,0.7,0.2,1.1,0.2c0.6,0,1-0.1,1.5-0.4
		c0.4-0.2,0.8-0.5,1-0.9c0.3-0.3,0.4-0.7,0.4-1l0.8,0.9c0,0.3-0.2,0.6-0.4,0.9c-0.2,0.3-0.5,0.7-0.8,1c-0.3,0.3-0.7,0.6-1.2,0.8
		c-0.5,0.2-1,0.3-1.5,0.3c-0.7,0-1.3-0.1-1.9-0.4c-0.5-0.3-1-0.7-1.3-1.1c-0.3-0.5-0.4-1-0.4-1.6c0-0.6,0.1-1.1,0.3-1.5
		c0.2-0.4,0.5-0.8,1-1.1c0.4-0.3,0.9-0.5,1.5-0.7c0.6-0.1,1.2-0.2,2-0.2H683.1z M694.1,35.9V23h1.8v15h-1.7L694.1,35.9z M686.9,32.8
		v-0.2c0-0.8,0.1-1.5,0.3-2.2c0.2-0.7,0.5-1.2,0.8-1.7c0.4-0.5,0.8-0.8,1.3-1.1c0.5-0.3,1.1-0.4,1.7-0.4c0.7,0,1.2,0.1,1.7,0.4
		c0.5,0.2,0.9,0.6,1.3,1c0.4,0.4,0.6,1,0.8,1.6c0.2,0.6,0.3,1.3,0.4,2.1v0.9c-0.1,0.8-0.2,1.5-0.4,2.1c-0.2,0.6-0.5,1.1-0.8,1.6
		c-0.3,0.4-0.8,0.8-1.3,1c-0.5,0.2-1.1,0.3-1.8,0.3c-0.6,0-1.2-0.1-1.7-0.4c-0.5-0.3-0.9-0.6-1.3-1.1c-0.4-0.5-0.6-1-0.8-1.7
		C687,34.3,686.9,33.6,686.9,32.8z M688.8,32.6v0.2c0,0.5,0.1,1,0.2,1.5c0.1,0.5,0.3,0.9,0.5,1.2c0.2,0.4,0.5,0.6,0.9,0.8
		c0.4,0.2,0.8,0.3,1.3,0.3c0.6,0,1.1-0.1,1.5-0.4c0.4-0.3,0.7-0.6,0.9-1c0.2-0.4,0.4-0.9,0.5-1.4v-2.4c-0.1-0.4-0.2-0.7-0.3-1
		c-0.1-0.3-0.3-0.6-0.6-0.9c-0.2-0.3-0.5-0.5-0.8-0.6c-0.3-0.2-0.7-0.2-1.2-0.2c-0.5,0-0.9,0.1-1.3,0.3c-0.4,0.2-0.6,0.5-0.9,0.8
		c-0.2,0.4-0.4,0.8-0.5,1.2C688.8,31.6,688.8,32.1,688.8,32.6z M698.2,32.8v-0.2c0-0.8,0.1-1.5,0.3-2.1c0.2-0.7,0.5-1.2,1-1.7
		c0.4-0.5,0.9-0.9,1.5-1.1c0.6-0.3,1.3-0.4,2-0.4c0.7,0,1.4,0.1,2,0.4c0.6,0.3,1.1,0.6,1.5,1.1c0.4,0.5,0.7,1.1,1,1.7
		c0.2,0.7,0.3,1.4,0.3,2.1v0.2c0,0.8-0.1,1.5-0.3,2.1c-0.2,0.7-0.5,1.2-1,1.7c-0.4,0.5-0.9,0.9-1.5,1.1c-0.6,0.3-1.3,0.4-2,0.4
		c-0.7,0-1.4-0.1-2-0.4c-0.6-0.3-1.1-0.7-1.5-1.1c-0.4-0.5-0.7-1.1-1-1.7C698.3,34.3,698.2,33.6,698.2,32.8z M700,32.6v0.2
		c0,0.5,0.1,1,0.2,1.5c0.1,0.5,0.3,0.9,0.6,1.2c0.3,0.4,0.6,0.6,0.9,0.8c0.4,0.2,0.8,0.3,1.3,0.3c0.5,0,0.9-0.1,1.3-0.3
		c0.4-0.2,0.7-0.5,0.9-0.8c0.2-0.4,0.4-0.8,0.6-1.2c0.1-0.5,0.2-1,0.2-1.5v-0.2c0-0.5-0.1-1-0.2-1.5c-0.1-0.5-0.3-0.9-0.6-1.2
		c-0.2-0.4-0.6-0.7-0.9-0.9c-0.4-0.2-0.8-0.3-1.3-0.3c-0.5,0-0.9,0.1-1.3,0.3c-0.4,0.2-0.7,0.5-0.9,0.9c-0.2,0.4-0.4,0.8-0.6,1.2
		C700.1,31.6,700,32.1,700,32.6z"/>
</g>
<g id="mario" class="marioB">
	<defs>
		<rect id="SVGID_1_" x="555" y="57" width="83" height="83"/>
	</defs>
	<clipPath id="SVGID_2_">
		<use xlink:href="#SVGID_1_"  style="overflow:visible;"/>
	</clipPath>
	<g class="st0">
		<path class="st1" d="M606.7,57l0.5,5.4h5c-0.1,1.9-0.5,3.6,0.5,5.4c-0.2,0-0.3,0-0.5,0c-1.4-0.1-3.2-0.9-4.9-0.6l-0.6-4.8
			c-7,0-13.9-0.1-20.9,0c0-1.8,0-3.6,0-5.4L606.7,57L606.7,57z"/>
		<path class="st2" d="M622.6,67.3c3.5,0,7,0,10.4,0v4.9l5,0.5v15.7h-5.5c0.1-3.2-0.4-6.2-0.5-9.1c0-2.1,1.3-4.7,0-7.1h-9.4
			C622.6,70.6,622.6,68.9,622.6,67.3L622.6,67.3z"/>
		<path class="st3" d="M560,72.7c0,0.3,0.5,1.1,0.5,2c0,4.4-0.6,9.1-0.5,13.8h-5V72.7H560z"/>
		<path class="st4" d="M580.8,135.1v4.9h-10.4c0-1.6,0-3.3,0-4.9H580.8z"/>
		<path class="st4" d="M622.1,135.1c-0.1,1.6,0.1,3.3,0,4.9h-9.9v-4.9C615.5,135.2,618.8,135,622.1,135.1z"/>
		<path class="st5" d="M575.4,93.8c0,1.6,0,3.3,0,4.9h5l0,4.9l5.4,0.5c0,1.6,0,3.3,0,4.9c0,0.3,0,0.7,0,1c0,1.5,0,3,0,4.4h5
			c0,1.6,0,3.3,0,4.9c-1.6,0-3.3,0-5,0v5.4h5c0-1.8,0-3.6,0-5.4c2.3,0,8.8,0.4,10.4-0.7c1-0.7,0.7-3.4,1.5-4l4.5-0.2
			c-0.4-1.9-0.5-3.5-0.5-5.4c0-1.1-0.3-4.2,0.5-4.7l5-0.2l0.6-5.3l4.4-0.1c0-1.6,0-3.3,0-4.9h5.5c0,3.3,0,6.6,0,9.8l5,0.5
			c-0.1,1,0.2,2.6,0,3.4c0,0.1-1.1,1.1-1.3,1.5l-9.1,0v4.4l-5,0c0,7.2,0,14.4,0,21.6c-10.4-0.2-20.8-0.8-31.3-0.5
			c0-2.4-0.1-4.8,0-7.1c0.1-1.8,1.3-4.1,0-5.6c0.2-2.4,0-4.2-0.5-6.4c-0.1-0.6,0.1-1.4,0-2h-5l0-4.4c-0.6-0.6-6.5,0.5-7.7,0.5
			c-0.9,0-1.8-0.5-2.7-0.5c0-1.2,1-3.3,0.5-4.9l4.4-0.5c0.1-1.5-0.1-3.1,0-4.6c0.1-1.5,0.9-3.9,1-5.2L575.4,93.8L575.4,93.8z
			 M606.7,124.8l-0.2-4.9c-0.6-0.9-3.6-0.3-4.8-0.5v5.4H606.7z"/>
		<path class="st6" d="M627.6,107.6c1.1-0.2,1.1,0.5,1,1.5c-0.3,0-0.7,0-1,0c-0.1,6.9,0.1,13.8,0,20.6c-1.7,0-3.3,0-5,0
			c-0.1,1.6,0.1,3.3,0,4.9c0,0.4-0.5,0.5-0.5,0.5c-3.3,0-6.6,0.1-9.9,0c0-7.2,0-14.4,0-21.6h5l0-4.4l9.1,0
			C626.4,108.7,627.5,107.7,627.6,107.6L627.6,107.6z"/>
		<path class="st7" d="M617.1,77.1l5,0.5l0.5,5.9c1.8-0.6,3.1-0.5,4.9,0.1l0.1,4.9c-1.7,0-3.3,0-5,0c0,1.6,0,3.3,0,4.9
			c0,0.2,0,0.3,0,0.5h-5.5c0-1.9-0.5-4-0.5-5.4c0-0.2,0-0.3,0-0.5c0-1.9,0.4-3.3,0.5-4.9c0.1-1.6,0.5-3.5-1-4.4c0.4,0,0.8,0.1,1-0.3
			C617.3,77.9,617.1,77.5,617.1,77.1z"/>
		<path class="st4" d="M628.6,109.1c1.3-0.1,2.7,0,4,0v20.6c-1.6,0-3.3,0-5,0c0,1.6,0,3.3,0,4.9h-5c0.1-1.6-0.1-3.3,0-4.9
			c1.7,0,3.3,0,5,0c0.1-6.9-0.1-13.8,0-20.6C627.9,109,628.2,109.1,628.6,109.1L628.6,109.1z"/>
		<path class="st4" d="M627.6,88.4c1.7,0,3.3,0,5,0c0,1.6,0,3.3,0,4.9h-9.9c0-1.6,0-3.3,0-4.9C624.2,88.4,625.9,88.5,627.6,88.4z"/>
		<path class="st8" d="M564.9,109.1c1,0,1.8,0.5,2.7,0.5c1.2,0,7.1-1.1,7.7-0.5v4.4l5,0c0.1,0.6-0.1,1.4,0,2l-0.5,9.8l1-3.4
			c1.3,1.6,0.1,3.9,0,5.6c-0.1,2.4,0,4.8,0,7.1c0,0.2,0,0.3,0,0.5h-10.4c0-0.2,0-0.3,0-0.5c0-1.5,0.2-3-0.2-4.5l-5.3-1.3
			c-0.3-2.5,0.5-4.9,0.6-7.3C565.6,117.3,564.8,113.1,564.9,109.1z"/>
		<path class="st9" d="M564.9,109.1c-0.1,4,0.6,8.3,0.5,12.5c-0.1,2.4-0.9,4.8-0.6,7.3l5.3,1.3c0.4,1.4,0.2,3,0.2,4.5h-5.5l0-4.9h-5
			v-20.6C561.6,109.1,563.3,109,564.9,109.1L564.9,109.1z"/>
		<path class="st10" d="M575.4,77.6c1.1,0,2.8-0.4,3.5,0.5c-1.3,0.4-2,0.9-3.5,0c0,1.6,0,3.3,0,4.9c0,1.8,0,3.6,0,5.4
			c0,1.8,0,3.6,0,5.4h-4.5c0-0.2,0-0.3,0-0.5c0-1.5-0.3-2.9-0.6-4.3c-1.5-0.9-3.2-0.5-4.9-0.6l-0.5-4.9l5.4-0.5l0.2-4.9
			C571.2,77.3,574.2,77.6,575.4,77.6z"/>
		<path class="st4" d="M565.4,88.4c1.6,0.1,3.4-0.3,4.9,0.6c0.3,1.4,0.6,2.8,0.6,4.3H560c0-1.6,0-3.3,0-4.9
			C561.8,88.4,563.6,88.4,565.4,88.4L565.4,88.4z"/>
		<path class="st11" d="M585.8,62.4c7-0.1,13.9,0,20.9,0l0.6,4.8c1.7-0.3,3.5,0.5,4.9,0.6c0,1.6,0,3.3,0,4.9c-1.8,0.1-3.7-0.1-5.5,0
			c-1.7,0.1-3.1,0.4-5,0.5c-3.6,0.1-7.3,0.1-10.9,0c-1.8-0.1-3.3-0.4-5-0.5c-1.8-0.1-3.7,0.1-5.5,0c-0.1-1.4-0.1-3.5,0-4.9
			c0-0.1,0.5-0.4,0.5-0.5h5C585.8,65.7,585.8,64,585.8,62.4L585.8,62.4z"/>
		<path class="st12" d="M560,72.2c0-1.6,0-3.3,0-4.9h9.9l0.8-5.4l4.7,0c0,1.8,0,3.6,0,5.4c-1.7,0-3.3,0-5,0l-0.4,4.6
			c-0.4,0.6-1.8,0.3-2.5,0.3C565,72.4,562.4,72.1,560,72.2L560,72.2z"/>
		<path class="st3" d="M580.3,67.8c-0.1,1.5-0.1,3.5,0,4.9c0.1,1.5,1.1,2.8,1,2.9c-0.1,0.2-1.7-0.1-1,2.5c-0.5,0.1-1.1-0.1-1.5,0
			c-0.7-0.8-2.4-0.5-3.5-0.5c0-3.4,0-6.9,0-10.3C577.1,67.3,578.7,67.2,580.3,67.8z"/>
		<path class="st5" d="M585.8,62.4c0,1.6,0,3.3,0,4.9h-5c0.1-1.6-0.1-3.3,0-4.9C582.5,62.4,584.2,62.4,585.8,62.4z"/>
		<path class="st13" d="M567.4,72.2c0.6,2.5-2.7,1.2-4.2,1.5c-0.9,0.2-1.7,1.2-2.8,1c0-0.9-0.5-1.7-0.5-2c0-0.2,0-0.3,0-0.5
			C562.4,72.1,565,72.4,567.4,72.2z"/>
		<path class="st14" d="M622.6,67.3c0,1.6,0,3.3,0,4.9h9.4c1.3,2.4,0,5,0,7.1c0.1,2.9,0.6,5.9,0.5,9.1c-1.6,0-3.3,0-5,0l-0.1-4.9
			c-1.8-0.6-3.1-0.7-4.9-0.1l-0.5-5.9l-5-0.5c0.2-3,0-6.3,0-9.3c0-0.2,0-0.3,0-0.5L622.6,67.3L622.6,67.3z"/>
		<path class="st9" d="M617.1,67.8c0,3,0.2,6.3,0,9.3c0,0.4,0.1,0.8,0,1.1c-0.2,0.4-0.6,0.3-1,0.3c-1.3,0.1-2.7-0.1-4,0
			c0-2,0-3.9,0-5.9c0-1.6,0-3.3,0-4.9c0.2,0,0.3,0,0.5,0C614.1,67.9,615.6,67.7,617.1,67.8L617.1,67.8z"/>
		<path class="st15" d="M617.1,67.3c0-0.9-0.2-5.3,0.3-5.4h5.2c0,1.8,0,3.6,0,5.4H617.1L617.1,67.3z"/>
		<path class="st16" d="M575.4,67.3c0,3.4,0,6.9,0,10.3c-1.1,0-4.2-0.3-4.8,0.5l-0.2,4.9l-5.4,0.5l0.5,4.9c-1.8-0.1-3.7,0-5.5,0
			c-0.1-4.6,0.5-9.4,0.5-13.8c1.1,0.2,1.8-0.8,2.8-1c1.5-0.3,4.8,1,4.2-1.5c0.7,0,2.1,0.3,2.5-0.3l0.4-4.6
			C572.1,67.3,573.7,67.3,575.4,67.3L575.4,67.3z"/>
		<path class="st17" d="M575.4,88.4h5l0.5,4.9l4.5,0v5.4h6c-0.1,1.8-0.1,3.2,0.5,4.9c0.1,0.2-0.1,0.6,0,0.9c1.7,0.1,3.5,0.1,5.2,0
			c1,0,2,0.5,1.7-1c1,0,2,0,3,0v-4.9l5.5,0v-5.4c1.6,0,3.3,0.1,4.9-0.1l0.1-4.9h4h0.5c0,1.4,0.5,3.5,0.5,5.4c0,1.6,0,3.3,0,4.9
			l-4.4,0.1l-0.6,5.3l-5,0.2c-0.8,0.5-0.5,3.6-0.5,4.7h-20.9c0-1.6,0-3.3,0-4.9l-5.4-0.5l0-4.9h-5c0-1.6,0-3.3,0-4.9
			C575.3,92,575.4,90.2,575.4,88.4L575.4,88.4z"/>
		<path class="st8" d="M589.3,109.1v0.5c0,0.4,0.4,0.4,0.7,0.5c2.7,0.4,9.1,0.2,12,0c1-0.1,0.9-0.1,1.7-0.5c0.2-0.1,0.3-0.3,0.5-0.5
			h2.5c0,1.9,0.1,3.5,0.5,5.4l-4.5,0.2c-0.8,0.5-0.5,3.2-1.5,4c-1.6,1.1-8.1,0.7-10.4,0.7c0-1.6,0-3.3,0-4.9h-5c0-1.5,0-2.9,0-4.4h1
			v-1H589.3z"/>
		<path class="st18" d="M590.8,119.4c0,1.8,0,3.6,0,5.4h-5v-5.4C587.5,119.4,589.1,119.4,590.8,119.4z"/>
		<path class="st14" d="M606.7,124.8h-5v-5.4c1.2,0.2,4.1-0.4,4.8,0.5L606.7,124.8z"/>
		<path class="st19" d="M580.8,121.8l-1,3.4l0.5-9.8C580.8,117.6,581.1,119.5,580.8,121.8z"/>
		<path class="st20" d="M586.8,109.1v1h-1c0-0.3,0-0.7,0-1H586.8z"/>
		<path class="st3" d="M606.7,72.7c-0.1,3.3-0.1,6.2,1,9.3c3.2,1.1,6.1,1.1,9.4,1c-0.1,1.6-0.5,3-0.5,4.9l-0.5,0.5h-4l-0.1,4.9
			c-1.6,0.1-3.3,0-4.9,0.1c-0.2,0-0.4-0.3-0.5-0.5v-9.3c0.6-0.2,1.4-1.1,1-1.5c-0.5-0.5-1.7,0.7-1.5,1.5c-0.8,0.1-3.7,0.2-4-0.3
			l-0.4-10C603.6,73.2,605,72.8,606.7,72.7L606.7,72.7z"/>
		<path class="st18" d="M612.2,72.7c0,2,0,3.9,0,5.9c1.3-0.1,2.7,0.1,4,0c1.5,0.9,1.1,2.8,1,4.4c-3.4,0.1-6.3,0.1-9.4-1
			c-1.1-3.1-1.1-6-1-9.3C608.5,72.6,610.4,72.8,612.2,72.7L612.2,72.7z"/>
		<path class="st21" d="M616.6,88.4h-0.5l0.5-0.5C616.6,88.1,616.6,88.3,616.6,88.4z"/>
		<path class="st4" d="M590.8,73.2l-0.2,9.9l-4.8,0.5v9.8c0.6,0.1,1.4-0.1,2,0c3.1,0.6,6.8,1,9.9,0c2.3,0,4.6,0,7,0
			c0.5,0,1.3,0.1,1.5-0.5h0.5c0.1,0.2,0.3,0.5,0.5,0.5v5.4l-5.5,0v4.9c-1,0-2,0-3,0c-2.3,0.1-4.6-0.1-7,0c-0.6-1.7-0.6-3.1-0.5-4.9
			h-6l0-5.4l-4.5,0l-0.5-4.9h-5c0-1.8,0-3.6,0-5.4h10.4V72.7C587.5,72.8,588.9,73.2,590.8,73.2L590.8,73.2z"/>
		<path class="st22" d="M585.8,72.7V83h-10.4c0-1.6,0-3.3,0-4.9c1.5,0.9,2.2,0.4,3.5,0c0.4-0.1,1,0.1,1.5,0c-0.7-2.5,0.9-2.3,1-2.5
			c0.1-0.1-0.8-1.4-1-2.9C582.2,72.8,584,72.6,585.8,72.7L585.8,72.7z"/>
		<path class="st16" d="M601.7,73.2l0.4,10c0.4,0.5,3.3,0.4,4,0.3c0.2,0,0.4,0,0.5,0v9.3h-0.5l-1.5,0.5c-2.3,0-4.6,0-7,0
			c-3.3,0-6.6,0-9.9,0c-0.6-0.1-1.4,0.1-2,0v-9.8l4.8-0.5l0.2-9.9C594.4,73.3,598.1,73.3,601.7,73.2z"/>
		<path class="st20" d="M604.2,109.1c-0.2,0.2-0.3,0.4-0.5,0.5h-14.4v-0.5H604.2z"/>
		<path class="st3" d="M598.7,103.7c0.3,1.5-0.8,1-1.7,1c-1.7,0.1-3.5,0-5.2,0c-0.2-0.3,0-0.7,0-0.9
			C594.1,103.6,596.4,103.7,598.7,103.7L598.7,103.7z"/>
		<path class="st23" d="M603.7,109.5c-0.8,0.4-0.7,0.5-1.7,0.5c-2.9,0.2-9.3,0.4-12,0c-0.4-0.1-0.8,0-0.7-0.5H603.7z"/>
		<path class="st3" d="M607.7,82c0.4,0.4-0.4,1.3-1,1.5c-0.1,0-0.3,0-0.5,0C606,82.7,607.2,81.6,607.7,82z"/>
		<path class="st3" d="M597.7,93.3c-3.1,1-6.8,0.6-9.9,0C591.1,93.3,594.4,93.4,597.7,93.3z"/>
		<path class="st3" d="M606.2,92.9c-0.2,0.6-0.9,0.5-1.5,0.5L606.2,92.9z"/>
	</g>
</g>
<g id="bloque">
	<defs>
		<rect id="SVGID_3_" x="470" y="147" width="253" height="85"/>
	</defs>
	<clipPath id="SVGID_4_">
		<use xlink:href="#SVGID_3_"  style="overflow:visible;"/>
	</clipPath>
	<g class="st25">
		<path class="st26" d="M472,147.4c0.2,0.7,0.4,1.3,0.4,2c0.3,5.6,0.3,13.3,0,18.9c-0.1,1.3-1,2-0.4,3.3l37.1,0l1.6,0.8
			c-0.2,0.4-0.4,0.9-1,1c-3.8,0-7.7,0.9-11.5,0.2c-3,0-5.9,0-8.9,0c-0.4-0.7-1.5-0.4-2.2-0.4c-3,0-6.4-0.3-9.3,0.4
			c-1.8,0-3.9-0.3-5.5,0.4c-0.1-0.5-1.9-2.3-2.4-2.8v-9.5c0.7-0.4,0.4-1.5,0.4-2.2c0-2.8,0-5.6,0-8.4c0-0.7,0.3-1.8-0.4-2.2v-1.6
			C470.7,147.4,471.3,147.4,472,147.4L472,147.4z"/>
		<path class="st27" d="M611.1,147l24.6,0.4l0.7,2c-11.5,0.9-23.5,0.4-35,0c-0.8,0-1.5,0-2.2-0.4c0.2-0.7-0.3-1,0.8-1.5l0-0.5H611.1
			z"/>
		<path class="st27" d="M690.2,147c0.4,0.7,1.5,0.4,2.2,0.4c8,0.1,17.5-0.7,25.3,0c1.2,0.1,3.8,0.2,3.4,2c-0.1,0-0.3,0-0.4,0
			c-12.2-0.5-24.5,0.4-36.8,0c0-0.4,0-0.8,0-1.2c0-0.4,0.2-0.8,0.4-1.2H690.2L690.2,147z"/>
		<path class="st28" d="M721.8,207.4c0.1,1.4-0.1,2.8,0,4.2c0,0.6,0.4,0.6,0.4,0.6c0.3,4.7-0.2,9.7,0,14.5c0,0.8-0.4,1.6,0.8,1.4
			v0.8c-0.8-0.1-0.7,0.2-0.8,0.8c-0.8-0.1-1.6,0.2-2.4,0.4c1.7-0.7,0.4-2.2,0.4-3v-9.9c0-0.1,0.4-0.7,0.4-1.2
			c0.1-2.8-0.4-5.9,0.4-8.6C721.3,207.4,721.6,207.4,721.8,207.4z"/>
		<path class="st29" d="M722.2,231.6h-38.3v0.4h38.3V231.6z"/>
		<path class="st29" d="M677.5,231.6h-37.2v0.4h37.2V231.6z"/>
		<path class="st29" d="M636.4,231.6h-36.8v0.4h36.8V231.6z"/>
		<path class="st29" d="M593.3,231.6h-36.8v0.4h36.8V231.6z"/>
		<path class="st29" d="M552.6,231.6h-36.8v0.4h36.8V231.6z"/>
		<path class="st30" d="M592.9,147h-36.4v0.4h36.4V147z"/>
		<path class="st31" d="M470.4,207.8v23.8c0.7,0,1.3,0,2,0v0.4H470v-24.2L470.4,207.8L470.4,207.8z"/>
		<path class="st32" d="M552.6,147h-24.5v0.4h24.5V147z"/>
		<path class="st33" d="M470.4,178.4H470v22.2h0.4V178.4z"/>
		<path class="st28" d="M492.5,231.6v0.4h-20.2v-0.4C478.9,231.9,485.9,231.6,492.5,231.6z"/>
		<path class="st30" d="M723,199.8h-0.4c0.5-5.1,0.3-13,0-18.3h0.4V199.8z"/>
		<path class="st34" d="M509.1,231.6v0.4h-16.6v-0.4C496.5,231.6,505.9,232.3,509.1,231.6z"/>
		<path class="st33" d="M470,161.7V149c0.7,0.4,0.4,1.5,0.4,2.2c0,2.8,0,5.6,0,8.4C470.4,160.2,470.7,161.3,470,161.7L470,161.7z"/>
		<path class="st33" d="M528.1,147h-11.9v0.4h11.9V147z"/>
		<path class="st33" d="M723,169.6h-0.4c0.2-3.1,0-6.8,0-9.9h0.4V169.6z"/>
		<path class="st35" d="M511.1,151.4l0.8-1.1l2,0c-0.1,5.9,0.1,11.8,0,17.7c-0.1,2.6-1.3,3.6,1.6,5.6c7.6,0.3,15.3,0.2,22.9,0.2
			h11.5c0.6,0.1,1.3,0.2,2,0.4l0,2.4h-2.4c-2.7,0-7.4-0.4-9.9,0l-0.2-0.3c-0.1,0.1-0.2,0.3-0.2,0.3c-1.3,0.1-1.5-0.1-2.8,0.4
			c-3.4,1.2-1.6,4.3-1.6,6.9c0.1,5.8-0.1,11.5,0,17.3l1.6,0l0,1.6c5.3-0.5,11.2,1.3,16.4,0c1-0.3,1.1-0.6,1-1.6
			c0.2,0.1,0.6-0.1,0.8,0c5.7,1.7,7,2.4,13.7,2c1.5-0.1,4.9,0,4.5-2l1.2-0.2c-0.5-7.6,1-15.1,0-22.6l-1.2-0.2c0-1.3-0.1-1.3-1.2-1.6
			c-0.3-0.5-1.4-1.2-1.6-0.4c-0.4,0-0.8,0-1.2,0c-0.4-0.7-1.5-0.4-2.2-0.4c-3.3,0-7.2-0.5-10.1,0.8c-0.1,0.1-0.3,0.3-0.4,0.4
			c-0.6,0.3-1.4,0.7-2,0.8c-0.4,0.1-0.8,0-1.2,0c-0.2-0.3-0.4-0.8-0.4-1.2c0.1-1.5,0.7-2.9,0.8-4.4c0.2,0,0.6-0.1,0.8,0
			c0.6,0.2,1.1,0.6,1.9,0.5c-0.3,1.5,1.6,1.4,2.8,1.5c4.8,0.4,10.9,0.1,15.8,0c1.4,0,2.8-0.4,4.3-0.4c3.9-0.1,7.9,0.2,11.9,0
			c2.5-0.1,2.3,0.6,3.6-1.6c0.2-0.3,0.7-0.1,0.8-1.4c0.7-5.6,0-14.5,0-20.5h2.8c0.3,7-0.5,14.4,0,21.3c0.1,1.1,1,0.4,1.6,0.6
			c0,0.3-0.1,0.6,0,0.8c0.1,0.2,0.2,0.5,0.4,0.6c7.3,0.3,14.8,0.2,22.2,0.2c1.9,0,14,0.4,14.6-0.1c0.2-0.2,0-0.7,0.1-0.7
			c0.3-0.2,1.4-0.4,2-0.8c1.4,1.4,2.7,1.8,4.7,2c4.5,0.4,10,0,14.6,0c2,0,3.9-0.3,5.9-0.4c4-0.1,8.3,0.2,12.3,0c0.7,0,1.4,0.2,2-0.2
			c0.5-0.3,0.3-1,0.4-1.4c1.2-4.2,0.4-16.3,0.4-21.4l2.8-0.4v21.6c0,0.7,2.2,1.7,3,1.8c10.4,1.2,23.2-1.1,33.6,0
			c0.9,0.1,1.4,0.6,2.2,0.8c-0.1,0.4-0.1,1.6,0,2c-2.8,0-5.7,0-8.5,0c-2.8,0-4-0.9-7.3,0.4c-0.8,0.3-1.2,0.7-1.9,1.4l0.8,22.9
			c0.7,2.4,6,1.9,8,1.9c0.7,0,1.8,0.3,2.2-0.4c0.3,0,0.5,0,0.8,0c2,0.1,4-0.1,5.9,0c-0.1,1,0,2.2,0,3.2c-6.1-0.7-12.4-0.4-18.6-0.4
			c-5,0-10.4-0.3-15.4,0c-1.3,0.1-1.5,0-2.8,0.4c-0.4,0.1-2,0.7-2,1.1c1,2.3,0.1,4.5,0,6.7c-0.2,5.3,0.2,10.5-0.4,15.7l-2.4,0.4
			c-0.4-5.9,0.5-12.4,0-18.3c0-0.3,0-0.5,0-0.8c0.3-2.6,0.1-3.5-1.9-5.2l-35.5,0c-0.7-0.1-1.2,0.2-1.8,0.4c-0.2,0.1-1.5,1.1-1.6,1.2
			c-1.6,0.5-1.4-1.5-1.8-1.6H601c-0.6-0.2-1,0.3-1.3,0.4c-0.4,0.1-1-0.1-1.4,0.4c-0.4,0.9-0.1,1.9-0.2,2.8c-0.2,5.8,0.2,11.7,0,17.5
			c0,1.2,0.5,2.6-0.8,3.2c-0.2,0-0.5,0-0.8,0l-0.2-0.4l-0.2,0.4c-0.4,0-0.8,0-1.2,0c0.1-1.3-0.1-2.5,0-3.8c0-0.5,0.4-1,0.4-1.2
			v-10.3c0-1.8,0-4.9-0.4-6.6c-0.1-0.6,0-1.3-0.5-1.9l-2.1-0.5c-10.7,0.5-21.4-0.9-32.1-0.4c-0.8,0-3.2,0.2-3.8,0.4
			c-0.5,0.2-0.3,0.8-0.3,0.8c-0.3,0.2-1.1,0.1-1.5,0.5c-0.2,0.2,0,0.5-0.1,0.7c-0.3-0.2-0.8-0.4-1.2-0.4l-1.4-1.6
			c-4.5,0-9.1,0-13.6,0c-1.6,0-3.2,0-4.7,0c-0.8,0-1.6,0-2.4,0c-0.4,0-0.8,0-1.2,0c-3.8,0-7.5,0-11.3,0c-2.2,0-1.3-0.8-3.3,0.8
			c-0.8,0.6-1.7,0.8-2,2.4c-0.4,2.2-0.1,7.9,0,10.3c0.2,3,1.5,6.2,0.7,9.7c-0.1,0.5-0.7,0.6-0.7,0.7h-2.4
			c-0.5-5.7,0.8-11.7,0.4-17.3c-0.1-1.8-0.5-6.3-2.4-6.6c-3.9,0.2-7.8-0.8-11.7-0.4c-0.6,0.1-1.1,0.4-1.4,0.4
			c-3.1-0.7-6.7-0.5-9.9,0c-3.9-0.3-7.3,0.1-11.3,0c-0.7,0-1.8,0.3-2.2-0.4c0.1-0.3,0.1-1.7,0-2l2-0.8c3.3,0.6,8.8,1.2,12.1,0.8
			c2.1-0.2,2.1-0.4,3-2c0.1-0.1,0.6-0.1,0.6-0.6c0.2-1.2-0.6-3.6-0.2-5.1c0.1-0.3,0.7-0.1,0.8-0.8c0.6-4.2-0.5-9.7,0-14.1l-0.8,1.6
			c0-1.1,0.2-2.2-0.4-3.2c-0.4-0.6-1-0.7-1.1-0.9c-0.2-0.4,0-1.2-0.1-1.4c-0.9-1.2-14.2,0.5-16.6-0.1c0-0.4,0.6-1.4,0.4-2.4
			c1.7-0.7,3.7-0.4,5.5-0.4c3.8,0,7.6,0,11.5,0c3,0,5.9,0,8.9,0c3.8,0.8,7.7-0.2,11.5-0.2c0.5-0.1,0.7-0.6,1-1c0.6-1,0.7-1.8,0.8-3
			c0.4-5.1-0.4-11.5-0.4-16.9l0.4-0.2l-0.4-0.2C511.1,151.9,511.1,151.6,511.1,151.4L511.1,151.4z M493.7,178c0,0.1,0,0.3,0,0.4
			c-0.8-0.2-1,0.4-1.1,1c-0.1,2.3,0.2,5.5,0.3,7.9c0,0.9-0.4,1.7-0.3,2.4c0.1,3.2,1.6,6.9,0.4,10.3c0.9,0.5,1.5,1.8,1.9,2.2
			c0.4,0.4,0.4,0.4,0.9,0.4c4,0.4,9.5,0,13.7,0c6.6,0,13.4-0.4,20,0.4c0.8-0.1,1.5-1.4,1.8-2c0.1-0.2,1.1-0.5,0.8-1.4v-21.5
			c-0.1-0.5-1-0.1-1.2-0.2c-0.1,0-0.1-0.9-0.5-1.2c-1-0.8-12.3-0.3-14.7-0.4c-5.9-0.1-12.2-0.9-18.2-0.4
			C495.9,176.2,494.1,176.2,493.7,178L493.7,178z M616.3,179.2c-0.1-0.3,0.2-0.7-0.1-1.1c-0.2-0.2-2.4-1.8-2.9-1.7
			c-10.3,0.6-20.6-1-30.9-0.4c-0.8,0.1-3.2,0.2-3.9,0.4c-0.5,0.1-0.2,0.8-0.3,0.8c-0.1,0.1-0.5,0.1-0.8,0.4
			c-0.5,0.6-0.4,0.7-0.4,1.4c-0.2,2.6,0,6,0,8.8c0,0.7-0.3,1.8,0.4,2.2c-0.1,3.1-0.9,7.2-0.6,10.1c0.1,0.8,1.1,1.8,1.8,2.2
			c0.6,0.3,0.5,0.3,1.3,0.4c10.6,1,22.9-0.8,33.7,0c0.5-0.1,0.7,0.2,1-0.4c0.1-0.3-0.1-0.8,0-1.2c0.5,0,1.1,0,1.6,0
			C615.5,193.9,617.6,186,616.3,179.2L616.3,179.2z M620.6,176.8c-0.3,0.1-0.8-0.2-1.1,0c-0.6,3.1,0.1,6.2,0,9.3
			c-0.2,3.8-0.8,7.6-0.8,11.5c0,1.8,1,4.1,2.7,4.8c1,0.4,13.2,0.5,14.8,0.3c0.9-0.1,0.2-1.4,1.7-0.4l-0.4-0.8V201
			c0.2,0.1,0.6-0.1,0.8,0c1.1,0.5,2.5,1.8,4,2c2.9,0.4,9.7,0.1,12.7-0.4c1.8-0.3,2.9,0.2,3.2-2c0.7-6.8-0.5-14.7,0-21.7
			c-0.1-0.5,0.1-0.7-0.4-1c-0.1-0.1-0.5,0.1-0.7-0.1c-0.4-0.3-0.2-1.4-0.7-1.5c-4.9,0.8-11.3-1.4-15.9,0c-0.8,0.2-1.7,0.7-2,1.6
			l-2.2-1.6C630.8,176.9,625.8,175,620.6,176.8L620.6,176.8z M662.9,176.8c-0.3,0.1-0.8-0.2-1.1,0.1c-1.4,1.1-0.8,13.5-0.9,16
			c-0.1,4.5-2.5,9.3,3.9,9.7c3.6,0.2,7.4-0.1,11.1,0c1.4,0,2.7,0.4,4,0.4c4.8,0.1,10.8,0.4,15.4,0c1.1-0.1,2.4-0.5,3.6-0.6
			c0.7-0.3,0.6-0.9,0.8-1.4c1.4-3.3,1-18.2,0.4-22.2c-0.3-2-0.2-0.7-1.1-1.3c-0.4-0.3-0.4-1.1-1.1-1.1c-10.9,0.7-22.8-0.9-33.7,0
			C663.5,176.4,663.3,176.7,662.9,176.8L662.9,176.8z"/>
		<path class="st36" d="M508.3,149.4c0.3,0,0.5,0,0.8,0v22.2l-37.1,0c-0.6-1.3,0.3-2,0.4-3.3c0.3-5.6,0.3-13.2,0-18.9
			C484.3,149.2,496.4,149.6,508.3,149.4L508.3,149.4z"/>
		<path class="st27" d="M508.3,147.8c-0.1,0.2,0.1,1.2,0,1.6c-12,0.2-24-0.2-36,0c0-0.7-0.2-1.3-0.4-2c10.8-0.5,23.4-0.3,34.2,0
			C506.9,147.4,507.7,147.3,508.3,147.8z"/>
		<path class="st37" d="M511.1,149.4v2c0,0.3,0,0.5,0,0.8v0.4c0,5.4,0.8,11.7,0.4,16.9c-0.1,1.2-0.2,1.9-0.8,3l-1.6-0.8v-22.2
			C509.8,149.4,510.5,149.4,511.1,149.4z"/>
		<path class="st38" d="M489.4,173.6c-3.8,0-7.6,0-11.5,0c2.9-0.7,6.3-0.4,9.3-0.4C487.9,173.2,489,173,489.4,173.6z"/>
		<path class="st36" d="M636.4,149.4c0.1,0,0.3,0,0.4,0v21.8c-0.2,0.1-0.5,1-1.2,0.8c-0.4-0.1-6.8-0.4-7.7-0.4h-16.4l-0.2,0.8
			c-0.3-1.3-1.4-0.8-2.6-0.8c-3-0.1-6.1,0.1-9.1,0c-0.1-1.7,0.3-2.8,0.4-4.4c0.3-4.2,0.4-6.8,0-11.1c-0.1-1.4-0.5-2.8-0.6-4.2
			c-0.1-0.8,0.9-2.2-0.5-2.5c0.1-0.2,0.4-0.3,0.4-0.4c0.7,0.4,1.4,0.4,2.2,0.4C613,149.7,624.9,150.3,636.4,149.4z"/>
		<path class="st36" d="M720.6,149.4v22.2c-12-0.5-24.5,0.4-36.5,0c-0.1,0-0.6-2.1-0.6-2.4c0.7-3,0.4-6.6,0.4-9.7
			c0-0.7,0.3-1.8-0.4-2.2c0.1-2.6,0.3-5.3,0.4-7.9C696.1,149.7,708.4,148.9,720.6,149.4z"/>
		<path class="st39" d="M683.9,149.4c-0.1,2.7-0.3,5.3-0.4,7.9c-0.1,3.5-0.4,8.6,0,11.9c0,0.3,0.5,2.4,0.6,2.4
			c12.1,0.4,24.5-0.5,36.5,0c0.4,0,1-0.1,1.2,0.4c-0.6,1.1-1,0.9-1.2,2.4c-0.8-0.2-1.3-0.7-2.2-0.8c-10.5-1.1-23.3,1.3-33.6,0
			c-0.8-0.1-3-1.1-3-1.8v-21.6l-2.8,0.4v-1.2c1.9-0.1,3.2,0.3,4.7-1.2C683.8,148.6,683.9,149,683.9,149.4z"/>
		<path class="st28" d="M721,149.4c0.5,0,1.1,0,1.6,0c0,3.4,0,6.9,0,10.3c0,3.2,0.2,6.8,0,9.9c-0.1,1.5-0.2,1.2-0.8,2.4
			c-0.2-0.5-0.8-0.4-1.2-0.4v-22.2C720.8,149.4,720.9,149.4,721,149.4z"/>
		<path class="st36" d="M720.6,207.4c0.1,0,0.3,0,0.4,0c-0.8,2.7-0.3,5.8-0.4,8.6c0,0.5-0.4,1-0.4,1.2v9.9c0,0.8,1.3,2.3-0.4,3
			c-4.9,1-13.9,0-19.4,0c-0.4-0.7-1.5-0.4-2.2-0.4c-3.2,0-6.3,0-9.5,0c-0.7,0-1.8-0.3-2.2,0.4c-0.9,0-2.2-0.3-2.8,0.4
			c-0.8-6.4,0-16.2,0-23C696.1,207.7,708.4,206.9,720.6,207.4L720.6,207.4z"/>
		<path class="st39" d="M719.8,230c0.8-0.2,1.5-0.5,2.4-0.4c-0.1,0.6,0.1,1.3,0,2h-38.3c0-0.1,0-0.3,0-0.4c0-0.3,0-0.5,0-0.8
			c0.5-0.7,1.9-0.4,2.8-0.4c4.6,0,9.2,0,13.8,0C706,230.1,715,231,719.8,230z"/>
		<path class="st33" d="M721.8,207.4c0.3,0,0.5,0,0.8,0l-0.4,4.8c0,0-0.3,0-0.4-0.6C721.7,210.2,721.9,208.8,721.8,207.4
			L721.8,207.4z"/>
		<path class="st27" d="M686.6,205.4c-0.2,1.2,0.6,0.8,1.4,0.8c4.1,0.2,8.6,0.1,12.7,0c0.8,0,1.6,0.4,1.4-0.8
			c6.2,0,12.5-0.3,18.6,0.4v1.6c-12.2-0.4-24.5,0.3-36.8,0c0-0.5,0-1.1,0-1.6C685.1,205.4,685.3,205.5,686.6,205.4L686.6,205.4z"/>
		<path class="st40" d="M722.2,178.8c0.6,1.2,0.3,1.5,0.4,2.8c0.3,5.3,0.5,13.1,0,18.3c0,0.3,0.1,0.6,0,0.8c-0.7,0-1.3,0-2,0v-21.8
			C721.1,178.8,721.7,178.7,722.2,178.8z"/>
		<path class="st38" d="M720.6,200.6c0.7,0,1.3,0,2,0c-0.1,0.4-1.2,1.1-1.6,1.2c-1.3,0.2-3.5,0-5,0c-0.8,0-1.6-0.4-1.4,0.8
			c-0.3,0-0.5,0-0.8,0c-2.1-0.1-5.1-0.4-7.1-1.2c0.4-0.7,1.5-0.4,2.2-0.4C712.9,201,716.8,200.6,720.6,200.6z"/>
		<path class="st41" d="M721,201.8c-0.1,0.3-0.4,0.6-0.4,0.8c-2-0.1-4,0.1-5.9,0c-0.2-1.2,0.6-0.8,1.4-0.8
			C717.5,201.8,719.7,202.1,721,201.8z"/>
		<path class="st27" d="M677.1,147.4l0.8,2c-0.3,0-0.5,0-0.8,0c-12.2,0.3-24.5-0.2-36.8,0v-1.6c0.3-0.1,0.5-0.3,0.8-0.4H677.1z"/>
		<path class="st38" d="M640.4,149.4v21.4l-0.8,0.2c-0.4,0.2-0.6,0.9-0.8,1c-0.6,0.4-1.7,0.6-2,0.8c-0.7,0.2-1.1-0.8-1.2-0.8
			c0.7,0.2,1-0.7,1.2-0.8c0.4-0.2,1.6,0.3,1.6-1l0-20.9c0.6-0.2,1.2-1.2,2-1.6V149.4z"/>
		<path class="st42" d="M638.4,149.4l0,20.9c0,1.2-1.2,0.8-1.6,1v-21.8C637.3,149.3,638,149.5,638.4,149.4z"/>
		<path class="st41" d="M515.5,148.6c0.1,0.3,0.4,0.6,0.4,0.8c0.7,7.2-1.5,14.7,0.2,21.9c0.3,0.4,0.8,0.3,1.2,0.4
			c5.1,0.6,12.9,0,18.4,0c0.4,0,0.8,0,1.2,0c0.5,0,1.1,0,1.6,0c3.4,0,6.9-0.1,10.3,0c0.4,0,0.8,0,1.2,0c0.1,0,0.3,0,0.4,0
			c0.8,0,1.6-0.1,2.4,0c0.2,0,0.5,0.4,0.8,0.4c-0.1,1.5-0.7,2.9-0.8,4.4h-0.8l0-2.4c-0.6-0.3-1.3-0.3-2-0.4
			c-2.9-0.7-6.2-0.4-9.3-0.4c-0.7,0-1.8-0.3-2.2,0.4c-7.6,0-15.3,0.1-22.9-0.2c-2.9-2-1.6-3-1.6-5.6c0.1-5.9-0.1-11.8,0-17.7l-2,0
			l-0.8,1.1v-2C512.5,149.3,514.3,149.6,515.5,148.6L515.5,148.6z"/>
		<path class="st27" d="M528.1,147.4h24.5v2c-12-0.8-24.7,0.6-36.8,0c0-0.2-0.3-0.5-0.4-0.8c0.1-0.1,0.1-1.1,0.8-1.2H528.1z"/>
		<path class="st43" d="M720.6,176.4c0.2,0.9,1.2,1.6,1.6,2.4c-0.5,0-1.1,0.1-1.6,0c-4.2-0.4-7.9-0.3-12.1-0.4c-1.3,0-2.4-0.6-3.7,0
			v-1.6c3.3-1.2,4.4-0.4,7.3-0.4C715,176.4,717.8,176.4,720.6,176.4z"/>
		<path class="st27" d="M592.9,147.4l0.4,2c-0.4,0-0.8,0-1.2,0c-9.6-0.1-24.4-1.1-33.4,0c-0.7,0.1-0.6,0.7-0.6,0.7
			c-0.2,0.1-1.4-0.5-1.9-0.3c0-0.5-0.1-1.1,0-1.6c0-0.2,0.3-0.5,0.4-0.8H592.9z"/>
		<path class="st37" d="M593.3,149.4c0.7,0,1.3,0,2,0v0.8c0,6,0.7,14.9,0,20.5c-0.2,1.3-0.6,1-0.8,1.4c-1,0.2-1.9-0.3-2.8-0.4
			c2-1.3,0.8-2.1,0.8-4.2c-0.1-5.2,1-10.7,0.4-15.9c-0.1-0.9-0.6-1.4-0.8-2.2C592.5,149.4,592.9,149.4,593.3,149.4z"/>
		<path class="st44" d="M598.9,149.4c1.4,0.3,0.5,1.7,0.5,2.5c0.2,1.4,0.5,2.8,0.6,4.2v11.1c-0.1,1.5-0.5,2.7-0.4,4.4
			c0,0.1,0,0.3,0,0.4c-0.6-0.2-1.5,0.5-1.6-0.6c-0.5-6.9,0.4-14.3,0-21.3h-2.8v-0.8C596.4,149.4,598,149.2,598.9,149.4L598.9,149.4z
			"/>
		<path class="st39" d="M640.4,207.4c0,0.3,0,0.5,0,0.8c0.1,3.4,0,6.9,0,10.3c0,3.7-0.9,7.4,0,11.1c5.7,0.6,11.4,0.3,17.2,0.4
			c1,0,1.9,0.4,2.9,0.4c4.4,0.1,9.1,0.2,13.4,0c1.1,0,2-0.4,3.2-0.4c0.4,0,1-0.1,1.2,0.4c-0.3,0.2-0.5,0.9-0.8,1.2h-37.2l-1-2
			c-0.3,0.2-0.7,0.4-1,0.4c1-7.2-0.7-15,0-22.2c0-0.3-0.1-0.7,0-0.8c0-0.1,1.4-1.1,1.6-1.2C640.1,206.3,640.3,206.9,640.4,207.4z"/>
		<path class="st39" d="M599.7,205.8c0,0.5,0,1.1,0,1.6c0,1.9-0.3,3.4-0.4,5.2c-0.1,4.4-0.4,10.9,0,15.1c0,0.4,0.4,2.4,0.6,2.4
			c7.3-0.2,14.6-0.4,21.9-0.4c3.2,0,6.3,0,9.5,0c0.3,0,0.5,0,0.8,0c0.1,0,0.3,0,0.4,0c1.4,0,2.9-0.1,4.3,0c0.2,0,0.6,0.4,0.8,0.4
			l-1.2,1.6h-36.8c-0.3-1.5-1.1-1.8-2.4-2c1.3-0.5,0.8-2,0.8-3.2V209c0-0.9-0.2-1.9,0.2-2.8C598.6,205.6,599.3,205.9,599.7,205.8z"
			/>
		<path class="st39" d="M556.2,206.2c0,0.4,0,0.8,0,1.2c0,2,0.3,3.6,0.4,5.3c0.2,5.6-0.2,11.3,0,16.9c3.3,0,6.6,0.3,9.9,0.4
			c7.8,0.2,15.6,0,23.3,0h4.3c-0.2,0.5-0.3,1.1-0.8,1.6h-36.8l-2-1.6c0.5-7.3-0.7-15.5,0-22.6c0-0.2-0.1-0.5,0.1-0.7
			C555,206.3,555.9,206.4,556.2,206.2z"/>
		<path class="st39" d="M515.5,206.2c-0.2,0.5,0.4,1,0.4,1.2c0,0.1,0,0.3,0,0.4c0.3,3.6,0.1,7.9,0,11.5c-0.1,3.6-1,7.2,0,10.7
			c5.6-0.3,11.3-0.7,17-0.8c3.9-0.1,7.9-0.1,11.9,0c2.6,0.1,5.2,0.6,7.9,0.4l0.8,0.8c-0.3,0.2-0.5,0.9-0.8,1.2h-36.8
			c-0.2,0-1.8-1.4-2-1.6c-0.1-0.1-0.4-0.7-0.4-0.8c0,0,0.6-0.2,0.7-0.7c0.7-3.5-0.5-6.6-0.7-9.7c0.7-2.5,0.4-5.5,0.4-8.1
			c0-0.7,0.3-1.8-0.4-2.2C513.8,207,514.6,206.8,515.5,206.2z"/>
		<path class="st28" d="M677.9,149.4c0.4,0,0.8,0,1.2,0v1.2c0,5.2,0.8,17.2-0.4,21.4c-0.6,0.2-1.2-0.4-1.6-0.4v-22.2
			C677.4,149.4,677.7,149.4,677.9,149.4z"/>
		<path class="st44" d="M471.6,206.6h0.8v0.8v22.2l8.9,0.4c2.8-0.6,5.6-0.4,8.5-0.4c5.3-0.1,10.5,0,15.8,0c1.2,0.1,2.4,0.3,3.6,0.4
			c0.4,0.1,1-0.1,1.2,0.4c-0.3,0.2-0.5,1-1.2,1.2c-3.3,0.7-12.6,0-16.6,0c-6.6,0-13.6,0.3-20.2,0c-0.7,0-1.3,0-2,0v-23.8
			C471,207.6,471.2,207,471.6,206.6L471.6,206.6z"/>
		<path class="st43" d="M486.2,205.4c3.9,0.3,6,0.3,9.9,0c0.2,0,0.8-0.3,1.4-0.4c3.9-0.4,7.8,0.6,11.7,0.4c0.4,0.8,0,1.6,0,2
			c-12.2,0.8-24.5,0.5-36.8,0v-0.8h-0.8c0.4-0.5,1.1-0.9,1.2-1.6c0.4,0.7,1.5,0.4,2.2,0.4C478.9,205.4,482.3,205.1,486.2,205.4
			L486.2,205.4z"/>
		<path class="st44" d="M472.4,178.4c0.1,3-0.4,5.9-0.4,8.7c0,3.4-0.3,7.5,0,10.7c0.1,1,0.5,1.9,0.8,2.8c0.1,0.3-0.1,0.8,0,1.2
			c1-0.8,1.7,0.3,2,0.4l-2,0.8c-0.2-0.8-2.1-1.5-2.4-2.4v-22.2l1.6-1.2C472,177.6,472.4,178.2,472.4,178.4L472.4,178.4z"/>
		<path class="st45" d="M593.3,207.8v21.8c0.4,0,0.8,0,1.2,0c-0.1,0.2-0.3,0.3-0.4,0.4h-27.7c-3.3-0.1-6.6-0.4-9.9-0.4
			c-0.2-5.6,0.2-11.3,0-16.9c-0.1-1.8-0.4-3.4-0.4-5.3C568.5,208.4,581,206.5,593.3,207.8L593.3,207.8z"/>
		<path class="st42" d="M594.9,207.8c0.4,1.7,0.4,4.8,0.4,6.6v10.3c0,0.1-0.4,0.7-0.4,1.2c-0.1,1.3,0.1,2.5,0,3.8
			c-0.1,0-0.3,0-0.4,0c-0.4,0-0.8,0-1.2,0v-21.9C593.9,207.8,594.4,207.7,594.9,207.8L594.9,207.8z"/>
		<path class="st39" d="M596.5,229.6c-0.1,0-0.3,0-0.4,0l0.2-0.4L596.5,229.6z"/>
		<path class="st46" d="M472,176.4c2.3,0.6,15.6-1.2,16.6,0.1c0.2,0.3-0.1,1,0.1,1.4c0.1,0.2,0.7,0.3,1.1,0.9c-0.5,0-1.1,0.1-1.6,0
			c-0.7-0.1-1.3-0.4-2.2-0.4c-4.6-0.2-9.2,0.5-13.7,0c0-0.2-0.4-0.7-0.4-1.2C472,176.9,472,176.7,472,176.4z"/>
		<path class="st26" d="M683.9,205.8c0,0.5,0,1.1,0,1.6c0,6.9-0.8,16.6,0,23c0,0.3,0,0.5,0,0.8c-0.9,0.1-1.4-1.1-2-1.2
			c-0.1-0.2-0.4-0.6-0.4-0.8c0.6-5.2,0.2-10.4,0.4-15.7c0.1-2.2,1-4.4,0-6.7C681.9,206.5,683.4,205.9,683.9,205.8z"/>
		<path class="st28" d="M679.1,210.6c0,0.3,0,0.5,0,0.8c-1.2-0.2-0.8,0.6-0.8,1.4c-0.2,4.8-0.2,10.3,0,15.1c0,0.8,0,1.5,0.4,2.2
			c0,0-0.2,0.3-0.4,0.4c-0.2-0.5-0.7-0.4-1.2-0.4v-22.2C678.6,208.3,678.9,209,679.1,210.6z"/>
		<path class="st46" d="M679.1,211.3c0.5,5.8-0.4,12.4,0,18.3l2.4-0.4c0,0.2,0.3,0.6,0.4,0.8c-0.4-0.1-2.8-0.1-3.2,0
			c-0.4-0.7-0.4-1.4-0.4-2.2c-0.2-4.8-0.1-10.3,0-15.1C678.3,212,677.9,211.1,679.1,211.3L679.1,211.3z"/>
		<path class="st42" d="M509.1,205.4c1.9,0.3,2.2,4.8,2.4,6.6c0.4,5.6-0.9,11.6-0.4,17.3h2.4c0,0.1,0.3,0.7,0.4,0.8
			c-1.1,0.1-2.6-0.3-3.6,0.4c-0.2-0.5-0.8-0.3-1.2-0.4c0.2-7.5-0.2-15.1,0-22.6C509.2,207,509.6,206.1,509.1,205.4L509.1,205.4z"/>
		<path class="st41" d="M556.2,148.2c-0.1,0.5,0,1.1,0,1.6c-0.2,5.7-0.7,15.1,0,20.5c0.2,1.7,1.5,1.7,3,1.8
			c10.6,0.9,22.1-1.3,32.6-0.4c0.8,0.1,1.8,0.6,2.8,0.4c-1.3,2.2-1,1.5-3.6,1.6c-0.4-0.7-1.5-0.4-2.2-0.4c-3.1,0-6.7-0.3-9.7,0.4
			c-1.6,0-2.9,0.4-4.3,0.4h-15.8c-1.2-0.1-3.1-0.1-2.8-1.5c-0.8,0.1-1.4-0.3-1.9-0.5c1.7-2.9,0.4-6.3,0.4-9.3
			c-0.1-4.4,0.1-8.9,0-13.3C555.1,148.9,555.2,148.1,556.2,148.2z"/>
		<path class="st37" d="M552.6,149.4c0.9,0.1,1-0.3,1.4,0.8c0.2,0,0.4-0.5,0.6-0.8c0.1,4.4-0.1,8.9,0,13.3c0,3,1.3,6.4-0.4,9.3
			c-0.2-0.1-0.5,0-0.8,0c-0.2,0-0.6-0.4-0.8-0.4V149.4z"/>
		<path class="st42" d="M638.4,207.8c-0.7,7.3,1,15,0,22.2c-0.3,0-0.5,0-0.8,0c-0.2,0-0.6-0.4-0.8-0.4v-21.8
			C637.3,207.8,637.9,207.7,638.4,207.8z"/>
		<path class="st28" d="M554.6,207.4c-0.7,7.2,0.5,15.4,0,22.6c-0.4,0-0.8,0.1-1.2,0.4l-0.8-0.8v-22.2c0.4,0,0.7-0.4,0.8-0.4
			C553.8,206.9,554.3,207.2,554.6,207.4z"/>
		<path class="st36" d="M530.1,178.4v22.2c-0.5-0.1-1.1,0-1.6,0h-15.8c-2.9,0-5.8,0.4-8.5,0.4c-3.1,0-6.2-0.1-9.3-0.4
			c0.2-2.2-0.6-4.1-0.8-6.4c0.7-0.4,0.4-1.5,0.4-2.2c0-2.5,0.3-5.4-0.4-7.8c0-1.6,0.5-3.4,0.4-4.6c0-0.8-0.8-0.3-0.8-1.4
			c0-0.1,0-0.3,0-0.4c5.5,0.8,11.2,0.3,16.8,0.4C516.8,178.5,523.8,179.6,530.1,178.4L530.1,178.4z"/>
		<path class="st36" d="M636.8,178.8V201c0.3,0,0.6-0.1,0.8,0v0.4c-5.3-2-11.1,0.7-16.6-0.8c-0.4-7.4-0.4-14.8-0.4-22.2
			C626,178.5,631.5,178,636.8,178.8L636.8,178.8z"/>
		<path class="st41" d="M662.9,176.8c0,0.5,0,1.1,0,1.6c-0.1,1.1-0.4,2.2-0.4,3.4c-0.2,6.2,0.9,12.6,0.4,18.9h17.8
			c0.5,0,1.1,0,1.6,0c0.4,0,0.8,0,1.2,0c4.2,0,8.4-0.1,12.7,0c0.7,0,1.3,0,2,0c0.6,0,1.1,0.1,1.6,0.4c-0.2,0.5-0.1,1.1-0.8,1.4
			c-1.2,0.1-2.5,0.5-3.6,0.6c-0.4-0.7-1.5-0.4-2.2-0.4c-3.7,0-7.4,0-11.1,0c-0.7,0-1.8-0.3-2.2,0.4c-1.3,0-2.5-0.4-4-0.4
			c-2.7-0.7-6-0.4-8.9-0.4c-0.7,0-1.8-0.3-2.2,0.4c-6.4-0.4-4-5.3-3.9-9.7c0.1-2.6-0.6-15,0.9-16
			C662.1,176.6,662.6,176.9,662.9,176.8L662.9,176.8z"/>
		<path class="st44" d="M493.7,178.4c0.1,1.1,0.8,0.6,0.8,1.4c0,1.2-0.4,3-0.4,4.6c0,3.2-0.2,6.8,0,9.9c0.1,2.2,1,4.1,0.8,6.4
			c3.1,0.4,6.2,0.5,9.3,0.4c2.7,0,5.6-0.4,8.5-0.4c5.3,0,10.6-0.1,15.8,0c0.5,0,1.1-0.1,1.6,0c0.4,0,0.8,0.2,1.2,0.4
			c-0.3,0.6-0.9,1.9-1.8,2c-6.6-0.8-13.3-0.4-20-0.4l-14.6-0.4c-0.4-0.5-0.9-1.7-1.9-2.2c1.2-3.4-0.3-7.1-0.4-10.3
			c0-0.7,0.4-1.5,0.3-2.4c-0.1-2.5-0.4-5.6-0.3-7.9C492.7,178.8,492.9,178.2,493.7,178.4L493.7,178.4z"/>
		<path class="st46" d="M556.2,206.2c0,0-0.2-0.6,0.3-0.8c0.6-0.2,3-0.4,3.8-0.4c10.7-0.5,21.4,0.9,32.1,0.4l2.1,0.5
			c0.5,0.6,0.4,1.3,0.5,1.9c-0.5,0-1.1,0.1-1.6,0c-12.3-1.3-24.8,0.6-37.2-0.4C556.2,207,556.2,206.6,556.2,206.2L556.2,206.2z"/>
		<path class="st46" d="M530.9,178c-0.1,0.4-0.5,0.3-0.8,0.4c-6.3,1.3-13.2,0.1-19.6,0c-5.6-0.1-11.3,0.4-16.8-0.4
			c0.3-1.8,2.2-1.8,3.8-2c6-0.5,12.2,0.3,18.2,0.4c2.4,0.1,13.6-0.4,14.7,0.4C530.8,177.1,530.8,177.9,530.9,178L530.9,178z"/>
		<path class="st26" d="M536.4,176.8l0.4,1.6c0,0-0.7,0.4-0.8,0.6c0.1,0.4,0.7-0.2,0.8,0.8c0.4,3-0.9,20,0,20.9
			c5,0.4,10.5-0.4,15.4,0c0.2,0,1.1,0.3,1.6,0.4c0.1,1,0,1.3-1,1.6c-5.2,1.3-11.1-0.4-16.4,0l0-1.6l-1.6,0c-0.1-5.8,0.2-11.5,0-17.3
			C534.8,181.1,533,178,536.4,176.8z"/>
		<path class="st43" d="M530.1,205.4c0.1,0.6,1.1,0.6,1.2,0c0.8,0,1.6,0,2.4,0c1.1,0.7,3.6,0.7,4.7,0c4.5,0,9.1,0,13.6,0l1.4,1.6
			c-0.1,0-0.4,0.4-0.8,0.4c-12.2,1-24.5,0-36.8,0c0-0.2-0.6-0.7-0.4-1.2c2.1-1.6,1.1-0.8,3.3-0.8
			C522.6,205.4,526.3,205.4,530.1,205.4L530.1,205.4z"/>
		<path class="st46" d="M578.3,177.2c0.1,0-0.2-0.7,0.3-0.8c0.7-0.2,3-0.4,3.9-0.4c10.2-0.6,20.6,1,30.9,0.4
			c0.5-0.1,2.7,1.5,2.9,1.7c0.2,0.4,0,0.8,0.1,1.1c-0.6-0.1-1.5,0.1-2,0c-0.2-0.1-1-1.1-1.8-0.8l-33.8,0
			C578.7,178.2,578.1,177.7,578.3,177.2L578.3,177.2z"/>
		<path class="st39" d="M578.3,177.2c-0.2,0.5,0.4,1,0.4,1.2c0,0.1,0,0.3,0,0.4c0.3,3.9-0.2,8,0,11.9c-0.2,3.3-0.9,6.8,0,10.1
			c0.5,0.6,4.1-0.1,5.2-0.2c4.6,0.1,9.2-0.1,13.8,0c5.5,0.1,11,0.6,16.6,0.4c0.1,0,0.3,0,0.4,0c-0.1,0.3,0.1,0.9,0,1.2h-36
			c-0.7-0.3-1.7-1.3-1.8-2.2c-0.3-2.9,0.5-7.1,0.6-10.1c0.1-4.1-0.1-8.2,0-12.3C577.8,177.3,578.2,177.3,578.3,177.2z"/>
		<path class="st34" d="M599.7,205.8c0.3-0.1,0.8-0.6,1.3-0.4h35.6c0.4,0.1,0.2,2.1,1.8,1.6c-0.1,0.1,0,0.5,0,0.8
			c-0.5,0-1.1,0.1-1.6,0c-12.3-1.3-24.8,0.6-37.2-0.4C599.7,206.8,599.7,206.3,599.7,205.8z"/>
		<path class="st46" d="M640,205.8c0.6-0.3,1.1-0.5,1.8-0.4l35.5,0c1.9,1.6,2.1,2.6,1.9,5.2c-0.2-1.6-0.6-2.3-2-2.8
			c-0.7-0.2-1.4-0.4-2.2-0.4l-34.6,0C640.3,206.9,640.1,206.3,640,205.8z"/>
		<path class="st46" d="M662.9,176.8c0.4-0.1,0.6-0.4,1.3-0.4c10.8-0.8,22.7,0.7,33.7,0c0.8,0,0.8,0.8,1.1,1.1
			c0.8,0.6,0.7-0.7,1.1,1.3c-0.5,0-1.1,0.1-1.6,0c-11.5-1.6-24,0.8-35.6-0.4C663,177.9,662.9,177.3,662.9,176.8L662.9,176.8z"/>
		<path class="st26" d="M556.2,176.8v1.6c0,7.5,0,15.1,0,22.6c4.1-0.1,8.3,0.1,12.5,0c1.1,0,2.2-0.6,3.3-0.4c0,0,0.3,0.6,0.8,0.4
			c0.4,2-3,1.9-4.5,2c-6.6,0.4-7.9-0.3-13.7-2l-0.4-23.4C554.8,177.5,555.6,177.1,556.2,176.8L556.2,176.8z"/>
		<path class="st39" d="M620.6,176.8v1.6c0,7.4,0,14.8,0.4,22.2c5.5,1.5,11.2-1.2,16.6,0.8l0.4,0.8c-1.5-1-0.9,0.3-1.7,0.4
			c-1.6,0.2-13.9,0.1-14.8-0.3c-1.8-0.7-2.7-3-2.7-4.8c-0.1-3.8,0.5-7.7,0.8-11.5c0.2-3.1-0.6-6.2,0-9.3
			C619.8,176.6,620.4,176.9,620.6,176.8L620.6,176.8z"/>
		<path class="st39" d="M640.4,170.8c0.4,0.8,1.5,1,2.3,1.1c11.2,1.6,23.4-1.4,34.5-0.3c0.4,0,1,0.6,1.6,0.4
			c-0.1,0.4,0.1,1.1-0.4,1.4c-0.6,0.3-1.3,0.1-2,0.2c-0.4-0.7-1.5-0.4-2.2-0.4c-2.6,0-5.3,0-7.9,0c-0.7,0-1.8-0.3-2.2,0.4
			c-2.1,0-4,0.4-5.9,0.4c-0.4-0.7-1.5-0.4-2.2-0.4c-3.4,0-6.9,0-10.3,0c-0.7,0-1.8-0.3-2.2,0.4c-2-0.2-3.3-0.6-4.7-2
			c0.2-0.1,0.4-0.8,0.8-1L640.4,170.8L640.4,170.8z"/>
		<path class="st37" d="M489.8,178.8c0.6,1,0.4,2.1,0.4,3.2l0.8-1.6c-0.4,4.4,0.6,9.9,0,14.1c-0.1,0.7-0.7,0.5-0.8,0.8
			c-0.4,1.5,0.4,3.9,0.2,5.1c-0.1,0.4-0.6,0.5-0.6,0.6c-0.5-0.3-1-0.4-1.6-0.4v-21.8C488.7,178.8,489.3,178.7,489.8,178.8
			L489.8,178.8z"/>
		<path class="st37" d="M554.2,177.6l0.4,23.4c-0.2-0.1-0.5,0.1-0.8,0c-0.4-0.1-1.3-0.4-1.6-0.4l0.4-22.2l0.4-0.8
			C553.4,177.5,553.8,177.6,554.2,177.6z"/>
		<path class="st37" d="M616.3,179.2c1.3,6.9-0.7,14.8,0,21.9c-0.5,0-1.1,0-1.6,0c-0.1,0-0.3,0-0.4,0v-21.8
			C614.8,179.3,615.7,179.1,616.3,179.2L616.3,179.2z"/>
		<path class="st42" d="M700.1,178.8c0.6,4,1,18.9-0.4,22.2c-0.5-0.3-1-0.4-1.6-0.4l0.4-21.8C699,178.8,699.6,178.7,700.1,178.8z"/>
		<path class="st42" d="M572.8,178l1.2,0.2c1,7.5-0.5,15,0,22.6l-1.2,0.2c-0.5,0.2-0.7-0.4-0.8-0.4c0-1.2-0.4-2.2-0.4-3.4
			c0.1-3,0.9-6.9,0.9-9.9c0-2.6-1.1-5.8-0.8-8.5c0.4,0.1,0.8,0,1.2,0L572.8,178L572.8,178z"/>
		<path class="st28" d="M658.2,200.6c-0.7,0-1.3,0-2,0l-0.4-21.8c0.8-0.1,1.5-0.1,2-0.8c0.5,0.3,0.4,0.5,0.4,1
			C657.6,185.9,658.9,193.8,658.2,200.6z"/>
		<path class="st38" d="M640.4,176.4v24.2c-0.7,0-1.3,0-2,0v-2.8c0-3.6,0-7.2,0-10.7c0-2.6-0.2-5.8,0-8.3c0-0.3-0.1-0.6,0-0.8
			C638.7,177.1,639.6,176.6,640.4,176.4z"/>
		<path class="st39" d="M608.8,171.6c1.1,0,2.3-0.5,2.6,0.8l0.2-0.8h16.4c0.9,0,7.3,0.3,7.7,0.4c0.1,0,0.5,1,1.2,0.8
			c0,0,0.1,0.6-0.1,0.7c-0.6,0.5-12.6,0.1-14.6,0.1c-0.4-0.7-1.5-0.4-2.2-0.4c-4.2-0.1-8.3,0-12.5,0l1.1-0.5L608.8,171.6z"/>
		<path class="st41" d="M704.8,176.8v1.6c0,3.9-0.6,8-0.4,11.7c0.2,3.5,1.3,7,0.8,10.6c0.1,0.5,1.2,0.5,1.6,0.7
			c2.1,0.8,5,1.1,7.1,1.2c-0.4,0.7-1.5,0.4-2.2,0.4c-2,0-7.3,0.5-8-1.9l-0.8-22.9C703.6,177.5,704,177.1,704.8,176.8z M704.6,200.6
			v0.4C704.9,200.9,704.9,200.8,704.6,200.6z"/>
		<path class="st47" d="M530.9,178c0.2,0.1,1.1-0.3,1.2,0.2v21.5c0.2,0.9-0.7,1.2-0.8,1.4c-0.4-0.2-0.8-0.4-1.2-0.4v-22.2
			C530.4,178.3,530.8,178.4,530.9,178L530.9,178z"/>
		<path class="st46" d="M640.4,176.4c4.6-1.4,11,0.7,15.9,0c0.5,0.1,0.4,1.2,0.7,1.5c0.2,0.2,0.6,0,0.7,0.1c-0.5,0.7-1.2,0.7-2,0.8
			c-4.9,0.4-10.5,0-15.4-0.4V176.4z"/>
		<path class="st29" d="M620.6,176.8c5.2-1.8,10.2,0.1,15.6-0.4l2.2,1.6c-0.1,0.2,0,0.5,0,0.8c-0.5,0-1.1,0.1-1.6,0
			c-5.3-0.7-10.8-0.3-16.2-0.4V176.8z"/>
		<path class="st46" d="M570,176c0.1,0,1.3,0.3,1.6,0.4c1,0.3,1.2,0.3,1.2,1.6v0.8c-0.4,0-0.8,0.1-1.2,0c-0.2,0-0.6-0.4-1.3-0.4
			c-4.7-0.2-9.4,0.2-14.1,0v-1.6c0.1-0.1,0.3-0.3,0.4-0.4c3.6,0,7.3,0.1,10.9,0c0.7,0,1.3-0.4,1.3-0.4C569.2,176,569.6,176,570,176z
			"/>
		<path class="st48" d="M488.2,200.6c0.6,0,1.1,0.1,1.6,0.4c-0.9,1.6-0.9,1.8-3,2c-3.3,0.4-8.7-0.2-12.1-0.8c-0.3,0-0.9-1.2-2-0.4
			c-0.1-0.4,0.1-0.9,0-1.2C477.9,200.8,483.1,200.4,488.2,200.6L488.2,200.6z"/>
		<path class="st41" d="M640.4,200.6c5.5,0.2,10.3,0,15.8,0c0.7,0,1.3,0,2,0c-0.2,2.2-1.4,1.7-3.2,2c-3.5,0-7,0-10.5,0
			c-0.7,0-1.8-0.3-2.2,0.4c-1.5-0.2-2.8-1.5-4-2v-0.4C639.1,200.6,639.7,200.6,640.4,200.6z"/>
		<path class="st42" d="M638.4,178.8c-0.2,2.5,0,5.7,0,8.3c-0.7,2.6-0.4,5.8-0.4,8.5c0,0.7-0.3,1.8,0.4,2.2v3.2
			c-0.2-0.1-0.6,0.1-0.8,0c-0.2-0.1-0.5,0.1-0.8,0v-22.2C637.3,178.8,637.9,178.7,638.4,178.8L638.4,178.8z"/>
		<path class="st29" d="M539.2,176.4c-0.4,0.6,0,0.7,0.6,0.8c2.2,0.3,6,0.1,8.3,0c0.8,0,1.6,0.4,1.4-0.8h3.2c0,0.4,0.2,0.9,0.4,1.2
			l-0.4,0.8c-4.8,0.5-11.2-0.7-15.8,0l-0.4-1.6C537.7,176.3,537.9,176.5,539.2,176.4L539.2,176.4z"/>
		<path class="st49" d="M614.7,202.2c-0.2,0.6-0.5,0.4-1,0.4c-10.8-0.8-23,1-33.7,0c-0.8-0.1-0.7-0.1-1.3-0.4H614.7L614.7,202.2z"/>
		<path class="st48" d="M608.8,171.6l-0.1,1.1l-1.1,0.5c-2.6,0-5.5,0.3-7.9-0.4c-0.1-0.2,0-0.5,0-0.8c0-0.1,0-0.3,0-0.4
			C602.7,171.7,605.7,171.5,608.8,171.6z"/>
		<path class="st31" d="M702,205.4c0.2,1.2-0.6,0.8-1.4,0.8c-4.1,0.1-8.6,0.2-12.7,0c-0.8,0-1.6,0.4-1.4-0.8
			C691.6,205.1,697,205.4,702,205.4L702,205.4z"/>
		<path class="st49" d="M568.8,176c-0.1,0-0.6,0.4-1.3,0.4c-3.6,0-7.3-0.1-10.9,0c2.9-1.3,6.8-0.8,10.1-0.8
			C567.3,175.6,568.4,175.3,568.8,176z"/>
		<path class="st50" d="M607.6,173.2c4.1,0,8.3-0.1,12.5,0c0.7,0,1.8-0.3,2.2,0.4c-7.4,0-14.8,0.1-22.2-0.2
			c-0.2-0.1-0.3-0.4-0.4-0.6C602.1,173.5,605,173.2,607.6,173.2z"/>
		<path class="st31" d="M549.5,176.4c0.2,1.2-0.6,0.8-1.4,0.8c-2.3,0.1-6.1,0.3-8.3,0c-0.6-0.1-1-0.1-0.6-0.8h0.4
			C542,176,546.7,176.4,549.5,176.4L549.5,176.4z"/>
		<path class="st31" d="M496.1,205.4c-3.9,0.3-6,0.3-9.9,0C489.4,204.8,492.9,204.7,496.1,205.4z"/>
		<path class="st51" d="M598.1,226.4c0.2-5.8-0.2-11.7,0-17.5V226.4z"/>
		<path class="st50" d="M574.8,174c-4.9,0.1-11,0.4-15.8,0H574.8z"/>
		<path class="st50" d="M695.3,203c-4.7,0.4-10.6,0.1-15.4,0c0.4-0.7,1.5-0.4,2.2-0.4c3.7,0,7.4,0,11.1,0
			C693.8,202.6,694.9,202.3,695.3,203L695.3,203z"/>
		<path class="st50" d="M509.5,202.6c-4.2,0-9.7,0.5-13.7,0c-0.6-0.1-0.6,0-0.9-0.4L509.5,202.6z"/>
		<path class="st51" d="M658.2,174c-4.6,0-10.1,0.4-14.6,0c0.4-0.7,1.5-0.4,2.2-0.4c3.4,0,6.9,0,10.3,0
			C656.7,173.6,657.8,173.4,658.2,174L658.2,174z"/>
		<path class="st50" d="M655,202.6c-2.9,0.5-9.7,0.8-12.7,0.4c0.4-0.7,1.5-0.4,2.2-0.4C648,202.6,651.5,202.6,655,202.6z"/>
		<path class="st50" d="M577.5,189.9c-0.7-0.4-0.4-1.5-0.4-2.2c0-2.7-0.2-6.1,0-8.8c0.1-0.7-0.1-0.8,0.4-1.4
			C577.5,181.7,577.6,185.8,577.5,189.9z"/>
		<path class="st51" d="M676.4,173.6c-4,0.2-8.2-0.1-12.3,0c0.4-0.7,1.5-0.4,2.2-0.4c2.6,0,5.3,0,7.9,0
			C674.9,173.2,675.9,173,676.4,173.6L676.4,173.6z"/>
		<path class="st51" d="M591,173.6c-3.9,0.2-7.9-0.1-11.9,0c3-0.7,6.6-0.4,9.7-0.4C589.5,173.2,590.6,173,591,173.6z"/>
		<path class="st50" d="M549.9,173.6h-11.5c0.4-0.7,1.5-0.4,2.2-0.4C543.6,173.2,546.9,173,549.9,173.6z"/>
		<path class="st50" d="M676,202.6c-3.6-0.1-7.5,0.2-11.1,0c0.4-0.7,1.5-0.4,2.2-0.4C669.9,202.2,673.2,201.9,676,202.6z"/>
		<path class="st51" d="M513.5,218.9c-0.1-2.5-0.4-8.1,0-10.3c0.7,0.4,0.4,1.5,0.4,2.2C513.9,213.3,514.2,216.4,513.5,218.9z"/>
		<path class="st31" d="M538.4,205.4c-1.1,0.7-3.7,0.7-4.7,0C535.2,205.4,536.8,205.4,538.4,205.4z"/>
		<path class="st49" d="M571.6,176.4c-0.3-0.1-1.5-0.4-1.6-0.4C570.2,175.2,571.3,175.9,571.6,176.4z"/>
		<path class="st31" d="M531.3,205.4c-0.1,0.6-1.1,0.6-1.2,0C530.5,205.4,530.9,205.4,531.3,205.4z"/>
		<path class="st41" d="M511.1,152.6v-0.4l0.4,0.2L511.1,152.6z"/>
		<path class="st41" d="M539.6,176.4h-0.4c0,0,0.1-0.2,0.2-0.3L539.6,176.4z"/>
		<path class="st52" d="M600.1,167.3v-11.1C600.4,160.4,600.4,163,600.1,167.3z"/>
		<path class="st52" d="M683.5,169.2c-0.4-3.4-0.1-8.4,0-11.9c0.7,0.4,0.4,1.5,0.4,2.2C683.9,162.6,684.2,166.2,683.5,169.2z"/>
		<path class="st53" d="M700.5,230c-4.6,0-9.2,0-13.8,0c0.4-0.7,1.5-0.4,2.2-0.4c3.2,0,6.3,0,9.5,0C699,229.6,700.1,229.4,700.5,230
			L700.5,230z"/>
		<path class="st36" d="M720.6,178.8v21.8c-3.9,0-7.8,0.4-11.7,0.4c-0.7,0-1.8-0.3-2.2,0.4c-0.4-0.2-1.5-0.2-1.6-0.7
			c0.6-3.6-0.6-7.2-0.8-10.6c-0.2-3.7,0.4-7.9,0.4-11.7c1.4-0.6,2.5,0,3.7,0C712.8,178.5,716.4,178.3,720.6,178.8z"/>
		<path class="st36" d="M677.1,149.4v22.2c-11.1-1.1-23.3,1.9-34.5,0.3c-0.8-0.1-1.9-0.3-2.3-1.1v-21.4
			C652.6,149.2,664.9,149.7,677.1,149.4z"/>
		<path class="st36" d="M552.6,149.4v22.2c-0.7-0.1-1.6,0-2.4,0l-0.2-0.4l-0.2,0.4c-0.4,0-0.8,0-1.2,0c-2.4-0.7-5.5-0.4-8.1-0.4
			c-0.7,0-1.8-0.3-2.2,0.4c-0.5,0-1.1,0-1.6,0c-0.1-0.6-1.1-0.6-1.2,0c-5.5,0-13.3,0.7-18.4,0c-0.4-0.1-0.9,0-1.2-0.4
			c-1.6-7.1,0.5-14.7-0.2-21.9C527.9,150,540.7,148.6,552.6,149.4z"/>
		<path class="st52" d="M548.7,171.6c-3.4-0.1-6.9,0-10.3,0c0.4-0.7,1.5-0.4,2.2-0.4C543.1,171.2,546.2,170.9,548.7,171.6z"/>
		<path class="st52" d="M536.8,171.6c-0.4,0-0.8,0-1.2,0C535.7,171,536.8,171,536.8,171.6z"/>
		<path class="st52" d="M550.2,171.6c-0.1,0-0.3,0-0.4,0l0.2-0.4L550.2,171.6z"/>
		<path class="st36" d="M592.2,149.4c0.2,0.8,0.7,1.3,0.8,2.2c0.5,5.2-0.5,10.8-0.4,15.9c0,2,1.2,2.9-0.8,4.2
			c-10.5-0.8-22,1.3-32.6,0.4c-1.5-0.1-2.8-0.1-3-1.8c-0.7-5.4-0.2-14.8,0-20.5c0.5-0.2,1.7,0.4,1.9,0.3c0.1,0-0.1-0.6,0.6-0.7
			C567.7,148.2,582.6,149.3,592.2,149.4z"/>
		<path class="st45" d="M677.1,207.8V230c-1.2,0-2.1,0.4-3.2,0.4c-0.4-0.7-1.5-0.4-2.2-0.4c-3,0-6.1,0-9.1,0c-0.7,0-1.8-0.3-2.2,0.4
			c-1.1,0-2-0.4-2.9-0.4c-5.7-0.1-11.5,0.2-17.2-0.4c-0.9-3.7-0.1-7.4,0-11.1c0.7-2.4,0.4-5.5,0.4-8.1c0-0.7,0.3-1.8-0.4-2.2
			c0-0.3,0-0.5,0-0.8l34.6,0C675.7,207.4,676.5,207.5,677.1,207.8L677.1,207.8z"/>
		<path class="st53" d="M674,230.4c-4.3,0.2-9.1,0.1-13.4,0c0.4-0.7,1.5-0.4,2.2-0.4c3,0,6.1,0,9.1,0
			C672.5,230,673.6,229.8,674,230.4L674,230.4z"/>
		<path class="st53" d="M640.4,218.5c0-3.4,0.1-6.9,0-10.3c0.7,0.4,0.4,1.5,0.4,2.2C640.8,212.9,641.1,216,640.4,218.5z"/>
		<path class="st45" d="M636.8,207.8v21.8c-1.4-0.1-2.9,0-4.3,0l-0.2-0.4l-0.2,0.4c-0.3,0-0.5,0-0.8,0c-2.8-0.7-6.7-0.7-9.5,0
			c-7.3,0-14.6,0.2-21.9,0.4c-0.2,0-0.6-2-0.6-2.4c0.7-0.4,0.4-1.5,0.4-2.2c0-3.6,0-7.2,0-10.7c0-0.7,0.3-1.8-0.4-2.2
			c0.1-1.8,0.4-3.3,0.4-5.2C612,208.4,624.5,206.5,636.8,207.8L636.8,207.8z"/>
		<path class="st53" d="M599.3,227.6c-0.4-4.2-0.1-10.7,0-15.1c0.7,0.4,0.4,1.5,0.4,2.2c0,3.6,0,7.2,0,10.7
			C599.7,226.1,599.9,227.2,599.3,227.6L599.3,227.6z"/>
		<path class="st52" d="M631.3,229.6c-3.2,0-6.3,0-9.5,0C624.6,229,628.5,229,631.3,229.6z"/>
		<path class="st52" d="M632.5,229.6c-0.1,0-0.3,0-0.4,0l0.2-0.4L632.5,229.6z"/>
		<path class="st53" d="M589.8,230c-7.8,0-15.6,0.2-23.3,0H589.8z"/>
		<path class="st36" d="M552.6,207.4v22.2c-2.7,0.2-5.3-0.3-7.9-0.4c-3-0.7-6.6-0.4-9.7-0.4c-0.7,0-1.8-0.3-2.2,0.4
			c-5.6,0.1-11.4,0.4-17,0.8c-1-3.5-0.1-7.2,0-10.7c0.7-2.9,0.4-6.3,0.4-9.3c0-0.7,0.3-1.8-0.4-2.2c0-0.1,0-0.3,0-0.4
			C528.1,207.4,540.4,208.4,552.6,207.4z"/>
		<path class="st53" d="M544.7,229.2c-3.9-0.1-7.9-0.1-11.9,0c0.4-0.7,1.5-0.4,2.2-0.4C538.1,228.8,541.7,228.5,544.7,229.2z"/>
		<path class="st53" d="M515.9,219.3c0.1-3.6,0.3-8,0-11.5c0.7,0.4,0.4,1.5,0.4,2.2C516.3,213,516.6,216.4,515.9,219.3z"/>
		<path class="st36" d="M509.1,207.4c-0.2,7.5,0.2,15.1,0,22.6c-1.2-0.1-2.4-0.3-3.6-0.4c-4.5-0.4-9-0.5-13.6-0.4
			c-0.7,0-1.8-0.3-2.2,0.4c-2.8,0-5.7-0.1-8.5,0.4l-8.9-0.4v-22.2C484.6,207.8,496.9,208.2,509.1,207.4L509.1,207.4z"/>
		<path class="st53" d="M505.6,229.6c-5.3,0-10.6-0.1-15.8,0c0.4-0.7,1.5-0.4,2.2-0.4C496.5,229.2,501.1,229.2,505.6,229.6z"/>
		<path class="st36" d="M488.2,178.8v21.8c-5.1-0.3-10.3,0.2-15.4,0c-0.2-0.9-0.7-1.8-0.8-2.8c0.7-2.6,0.4-5.8,0.4-8.5
			c0-0.7,0.3-1.8-0.4-2.2c0-2.8,0.4-5.7,0.4-8.7c4.5,0.5,9.1-0.2,13.7,0C486.9,178.4,487.5,178.7,488.2,178.8z"/>
		<path class="st53" d="M472,197.8c-0.3-3.3,0-7.4,0-10.7c0.7,0.4,0.4,1.5,0.4,2.2C472.4,192,472.7,195.3,472,197.8z"/>
		<path class="st53" d="M528.5,200.6c-5.2-0.1-10.6,0-15.8,0H528.5z"/>
		<path class="st53" d="M494.1,194.3c-0.2-3.2,0-6.7,0-9.9c0.7,2.3,0.4,5.3,0.4,7.8C494.5,192.8,494.8,193.9,494.1,194.3z"/>
		<path class="st36" d="M698.5,178.8l-0.4,21.8c-0.7,0-1.3,0-2,0c-0.4-0.7-1.5-0.4-2.2-0.4c-2.8,0-5.5,0-8.3,0
			c-0.7,0-1.8-0.3-2.2,0.4c-0.4,0-0.8,0-1.2,0c-0.2-0.6-1.5-0.6-1.6,0h-17.8c0.5-6.3-0.6-12.7-0.4-18.9c0-1.1,0.3-2.2,0.4-3.4
			C674.5,179.5,686.9,177.2,698.5,178.8L698.5,178.8z"/>
		<path class="st52" d="M696.1,200.6c-4.2-0.1-8.4,0-12.7,0c0.4-0.7,1.5-0.4,2.2-0.4c2.8,0,5.5,0,8.3,0
			C694.6,200.2,695.7,200,696.1,200.6L696.1,200.6z"/>
		<path class="st52" d="M682.3,200.6c-0.5,0-1.1,0-1.6,0C680.8,200,682.1,200,682.3,200.6z"/>
		<path class="st36" d="M552.6,178.4l-0.4,22.2c-4.9-0.4-10.4,0.4-15.4,0c-0.9-0.8,0.4-17.9,0-20.9c-0.1-0.9-0.8-0.4-0.8-0.8
			c0.1-0.2,0.7-0.6,0.8-0.6C541.4,177.6,547.8,178.9,552.6,178.4z"/>
		<path class="st36" d="M614.3,179.2V201c-5.6,0.2-11.1-0.3-16.6-0.4c-0.4-0.7-1.5-0.4-2.2-0.4c-4,0-7.8,0.1-11.7,0.4
			c-1,0.1-4.7,0.8-5.2,0.2c-0.9-3.3-0.1-6.8,0-10.1c0.2-3.2,0.4-6.4,0.4-9.7c0-0.7,0.3-1.8-0.4-2.2c0-0.1,0-0.3,0-0.4l33.8,0
			C613.3,178.1,614.1,179.1,614.3,179.2z"/>
		<path class="st53" d="M597.7,200.6c-4.6-0.1-9.2,0.1-13.8,0c3.9-0.3,7.7-0.5,11.7-0.4C596.2,200.2,597.3,200,597.7,200.6z"/>
		<path class="st53" d="M578.7,190.7c-0.2-3.9,0.3-8.1,0-11.9c0.7,0.4,0.4,1.5,0.4,2.2C579.2,184.3,578.9,187.5,578.7,190.7z"/>
		<path class="st45" d="M571.6,178.8c-0.2,2.7,0.8,5.9,0.8,8.5c0,3-0.8,6.9-0.9,9.9c0,1.2,0.5,2.2,0.4,3.4c-1.2-0.1-2.2,0.4-3.3,0.4
			c-4.1,0.1-8.3-0.1-12.5,0c0-7.5,0-15.1,0-22.6c4.7,0.2,9.4-0.2,14.1,0C571,178.4,571.3,178.7,571.6,178.8L571.6,178.8z"/>
		<path class="st36" d="M655.8,178.8l0.4,21.8c-5.5,0-10.3,0.2-15.8,0v-22.2C645.3,178.7,650.9,179.1,655.8,178.8z"/>
		<path class="st29" d="M638.4,197.8c-0.7-0.4-0.4-1.5-0.4-2.2c0-2.7-0.3-6,0.4-8.5C638.4,190.7,638.4,194.3,638.4,197.8z"/>
		<path class="st36" d="M704.6,200.6c0.3,0.1,0.3,0.3,0,0.4V200.6z"/>
	</g>
</g>
<rect id="fondo" x="537" y="232" class="st54" width="133" height="89"/>
</svg>
