<svg width="280" height="283" viewBox="0 0 280 283" fill="none" xmlns="http://www.w3.org/2000/svg">
<g clip-path="url(#clip0_52_139)">
<path d="M53.9026 247.807H7.01798C3.68243 247.807 2.01465 246.135 2.01465 242.791V152.408C2.01465 149.064 3.68243 147.392 7.01798 147.392H53.9026C65.5904 147.392 74.2228 149.72 79.7865 154.361C85.3502 159.016 88.1387 166.172 88.1387 175.843V219.369C88.1387 229.04 85.3502 236.197 79.7865 240.852C74.2228 245.507 65.5904 247.821 53.9026 247.821V247.807ZM33.5957 174.024V221.456H50.1534C54.5163 221.456 56.6911 219.182 56.6911 214.621V180.726C56.6911 176.258 54.5163 174.038 50.1534 174.038H33.5957V174.024Z" fill="white"/>
<path d="M190.674 221.443C190.674 225.723 190.047 229.602 188.793 233.093C187.538 236.585 185.337 239.581 182.188 242.096C179.039 244.61 174.65 246.536 169.046 247.887C163.429 249.238 156.264 249.907 147.552 249.907C138.839 249.907 131.661 249.238 126.057 247.887C120.44 246.536 116.064 244.61 112.915 242.096C109.767 239.581 107.538 236.585 106.231 233.093C104.937 229.602 104.283 225.723 104.283 221.443V173.877C104.283 169.597 104.937 165.718 106.231 162.226C107.525 158.735 109.753 155.739 112.915 153.224C116.064 150.709 120.454 148.757 126.057 147.365C131.675 145.974 138.839 145.279 147.552 145.279C156.264 145.279 163.429 145.974 169.046 147.365C174.663 148.757 179.039 150.709 182.188 153.224C185.337 155.739 187.538 158.735 188.793 162.226C190.047 165.718 190.674 169.597 190.674 173.877V221.443ZM135.851 216.427C135.851 218.286 136.544 219.838 137.932 221.095C139.32 222.352 142.522 222.981 147.538 222.981C152.555 222.981 155.864 222.352 157.212 221.095C158.559 219.838 159.226 218.286 159.226 216.427V178.906C159.226 177.047 158.546 175.509 157.212 174.305C155.864 173.101 152.649 172.486 147.538 172.486C142.428 172.486 139.333 173.088 137.932 174.305C136.544 175.509 135.851 177.047 135.851 178.906V216.427Z" fill="white"/>
<path d="M274.983 247.807H241.041C229.353 247.807 220.72 245.48 215.157 240.838C209.593 236.183 206.804 229.027 206.804 219.356V175.977C206.804 166.213 209.593 159.003 215.157 154.361C220.72 149.706 229.353 147.392 241.041 147.392H274.983C278.319 147.392 279.987 149.064 279.987 152.408V169.289C279.987 172.633 278.319 174.305 274.983 174.305H247.018C241.361 174.305 238.532 176.633 238.532 181.274V214.474C238.532 218.941 241.361 221.162 247.018 221.162H274.983C278.319 221.162 279.987 222.834 279.987 226.178V242.778C279.987 246.122 278.319 247.794 274.983 247.794V247.807Z" fill="white"/>
<path d="M57.2248 127.462L30.6738 108.508C29.0194 107.223 28.5391 105.739 29.2462 104.027L35.8773 88.4567C36.6645 86.7178 37.9987 85.9821 39.8799 86.2363L71.9013 91.2256C74.1028 88.149 76.8779 84.912 80.2535 81.4877C83.6158 78.0634 87.1515 75.027 90.8206 72.3652L85.6438 40.1553C85.2302 38.2559 85.9507 36.9316 87.7919 36.1692L103.629 29.5881C105.47 28.8257 106.871 29.2671 107.845 30.9391L127.232 57.3838C131.714 56.6481 136.184 56.287 140.64 56.3137C145.097 56.3405 149.406 56.7016 153.542 57.424L172.635 31.1799C173.783 29.6684 175.29 29.227 177.158 29.869L192.675 36.0889C194.49 36.838 195.197 38.2291 194.823 40.2623L189.7 72.3919C192.835 74.7461 195.997 77.5284 199.186 80.6985C202.375 83.8821 205.257 87.3331 207.832 91.0517L240.12 85.7948C242.041 85.4604 243.389 86.2229 244.149 88.0554L250.46 103.318C251.221 105.164 250.794 106.608 249.166 107.665L222.575 127.034C223.296 130.766 223.696 134.564 223.789 138.444H252.515L269.887 125.803C274.543 122.553 277.598 118.259 279.039 112.908C280.48 107.571 280.093 102.207 277.879 96.8436L268.139 73.2881C265.924 67.9243 262.415 63.8847 257.638 61.1693C252.862 58.4673 247.645 57.531 242.001 58.3737L220.627 61.7712L218.839 59.8317L222.335 38.3763C223.282 32.7315 222.428 27.5148 219.8 22.7395C217.171 17.9642 213.075 14.4329 207.538 12.1322L183.602 2.22043C178.199 0.0534886 172.862 -0.347797 167.565 1.0032C162.268 2.36757 157.972 5.41734 154.69 10.1659L141.855 27.7556L138.933 27.8358L126.271 10.1391C122.922 5.43072 118.612 2.34082 113.356 0.85606C108.099 -0.628697 102.762 -0.227411 97.3182 2.03316L72.8353 12.2124C67.3916 14.473 63.3356 18.0177 60.6405 22.8465C57.9453 27.6753 57.1048 32.892 58.1054 38.4833L61.5344 60.0189L59.533 61.9719L38.0521 58.6546C32.3282 57.745 27.1114 58.6813 22.4016 61.4368C17.6785 64.1923 14.2228 68.2453 12.0214 73.569L2.1081 97.5525C-0.186763 103.104 -0.600372 108.521 0.867273 113.764C2.33492 119.021 5.40363 123.315 10.0601 126.632L26.4176 138.39H56.3709C56.4643 134.498 56.7445 130.832 57.2248 127.435V127.462Z" fill="white"/>
<path d="M117.425 136.865C118.052 132.705 119.6 128.973 122.068 125.643C124.536 122.312 127.805 119.797 131.888 118.112C135.971 116.413 140.067 115.865 144.203 116.44C148.339 117.028 152.088 118.567 155.464 121.055C158.839 123.542 161.374 126.833 163.069 130.926C164.083 133.387 164.67 135.889 164.843 138.43H189.98C189.807 132.665 188.566 126.953 186.231 121.295C182.748 112.882 177.558 106.127 170.66 101.004C163.762 95.8939 156.051 92.7104 147.525 91.4664C138.999 90.2224 130.567 91.3326 122.255 94.7971C113.929 98.2615 107.205 103.451 102.055 110.38C96.9046 117.309 93.7024 125.027 92.4349 133.535C92.1948 135.166 92.0613 136.785 91.9946 138.417H117.265C117.305 137.895 117.372 137.387 117.438 136.865H117.425Z" fill="white"/>
<path d="M3.32227 282.786V262.989H6.83127C7.84528 262.989 8.69918 263.177 9.40632 263.564C10.1135 263.952 10.6338 264.501 10.9807 265.236C11.3276 265.959 11.5011 266.828 11.5011 267.818V277.957C11.5011 278.96 11.3276 279.83 10.9674 280.539C10.6205 281.261 10.0868 281.81 9.39298 282.197C8.69918 282.585 7.83194 282.786 6.83127 282.786H3.32227ZM5.01673 281.181H6.67117C7.32493 281.181 7.88531 281.047 8.35229 280.793C8.81926 280.539 9.16616 280.164 9.40632 279.683C9.64648 279.201 9.76656 278.626 9.76656 277.957V267.831C9.76656 267.149 9.64648 266.574 9.40632 266.093C9.16616 265.611 8.80592 265.236 8.33894 264.982C7.87197 264.728 7.31159 264.594 6.67117 264.594H5.01673V281.181Z" fill="white"/>
<path d="M16.291 282.786L19.9201 262.989H21.5479V265.183H20.9875L18.0255 282.786H16.291ZM18.1189 277.609L18.4124 276.085H23.6292L23.9094 277.609H18.1322H18.1189ZM24.0028 282.786L21.0408 265.183V262.989H22.0815L25.7373 282.786H24.0028Z" fill="white"/>
<path d="M34.7299 282.987C33.9294 282.987 33.2222 282.813 32.6085 282.465C31.9948 282.117 31.5144 281.622 31.1675 280.967C30.8206 280.311 30.6205 279.536 30.5671 278.626V277.128H32.2883V278.733C32.3417 279.295 32.4617 279.763 32.6619 280.164C32.862 280.552 33.1422 280.86 33.5024 281.06C33.8627 281.261 34.2763 281.368 34.7566 281.368C35.2369 281.368 35.6238 281.274 35.9441 281.074C36.2776 280.873 36.5178 280.592 36.6912 280.231C36.8647 279.87 36.9447 279.429 36.9447 278.894V277.85C36.9447 276.914 36.7846 276.138 36.4644 275.536C36.1442 274.934 35.5438 274.305 34.6365 273.65L33.5958 272.834C32.6485 272.139 31.9414 271.403 31.4744 270.627C31.0074 269.851 30.7806 268.888 30.7806 267.724V266.801C30.7806 265.986 30.9407 265.277 31.2743 264.675C31.6078 264.059 32.0615 263.591 32.6352 263.257C33.2089 262.922 33.8894 262.762 34.6499 262.762C35.4104 262.762 36.1042 262.922 36.6645 263.257C37.2249 263.591 37.6652 264.073 37.9721 264.715C38.2789 265.357 38.4524 266.146 38.4791 267.082V268.634H36.7846V267.042C36.7446 266.454 36.6512 265.959 36.4777 265.571C36.3043 265.183 36.0641 264.889 35.7573 264.688C35.4504 264.487 35.0635 264.38 34.6232 264.38C34.1829 264.38 33.8093 264.474 33.5024 264.661C33.1956 264.849 32.9554 265.103 32.7819 265.437C32.6085 265.771 32.5284 266.173 32.5284 266.641V267.591C32.5284 268.407 32.7019 269.116 33.0755 269.717C33.4491 270.319 34.0228 270.935 34.8367 271.55L35.8907 272.353C36.5711 272.847 37.1315 273.342 37.5451 273.851C37.9587 274.359 38.2523 274.921 38.4391 275.536C38.6125 276.151 38.7059 276.874 38.7059 277.716V278.733C38.7059 279.589 38.5458 280.338 38.2256 280.98C37.9054 281.622 37.4384 282.117 36.8513 282.452C36.2643 282.799 35.5438 282.96 34.7299 282.96V282.987Z" fill="white"/>
<path d="M44.2561 282.786V262.989H45.9773V271.844H51.0606V262.989H52.7818V282.786H51.0606V273.436H45.9773V282.786H44.2561Z" fill="white"/>
<path d="M58.906 282.786V262.989H60.6005V282.786H58.906ZM59.7732 282.786V281.194H62.8553C63.6025 281.194 64.1628 281.007 64.5231 280.632C64.8833 280.258 65.0701 279.723 65.0701 279.001V275.71C65.0701 275.162 64.9901 274.72 64.8166 274.372C64.6565 274.025 64.403 273.77 64.0561 273.597C63.7092 273.423 63.2689 273.342 62.7085 273.342H59.7599V271.818H62.5751C63.3223 271.818 63.8693 271.644 64.2029 271.309C64.5364 270.961 64.6965 270.413 64.6965 269.637V266.681C64.6965 265.945 64.5231 265.41 64.1895 265.089C63.8426 264.755 63.3223 264.581 62.6018 264.581H59.7466V262.989H62.7886C63.5758 262.989 64.2296 263.123 64.7766 263.404C65.3236 263.685 65.7239 264.086 66.0041 264.621C66.2843 265.156 66.4177 265.812 66.4177 266.587V269.503C66.4177 270.119 66.3376 270.627 66.1909 271.042C66.0441 271.456 65.8173 271.777 65.5237 272.005C65.2302 272.232 64.8967 272.379 64.5231 272.433V272.526C64.9901 272.607 65.3903 272.767 65.7372 273.035C66.0841 273.302 66.351 273.663 66.5378 274.118C66.7245 274.573 66.8313 275.135 66.8313 275.79V279.041C66.8313 279.857 66.6845 280.539 66.4043 281.087C66.1108 281.636 65.6839 282.064 65.1235 282.345C64.5631 282.626 63.856 282.773 63.0288 282.773H59.7732V282.786Z" fill="white"/>
<path d="M76.7044 282.987C75.8639 282.987 75.1167 282.786 74.4763 282.398C73.8358 282.01 73.3288 281.448 72.9819 280.726C72.635 280.004 72.4482 279.161 72.4482 278.171V267.631C72.4482 266.628 72.6217 265.772 72.9819 265.049C73.3422 264.327 73.8358 263.765 74.4763 263.377C75.1167 262.989 75.8639 262.789 76.7178 262.789C77.5717 262.789 78.2921 262.989 78.9326 263.377C79.5863 263.765 80.08 264.327 80.4402 265.049C80.8005 265.772 80.9873 266.641 80.9873 267.644V278.185C80.9873 279.174 80.8005 280.031 80.4402 280.739C80.08 281.462 79.573 282.01 78.9326 282.411C78.2921 282.813 77.545 283 76.7044 283V282.987ZM76.7044 281.355C77.2248 281.355 77.6784 281.234 78.0653 280.98C78.4522 280.726 78.7458 280.365 78.9593 279.897C79.1594 279.429 79.2661 278.867 79.2661 278.198V267.577C79.2661 266.922 79.1594 266.347 78.9593 265.879C78.7591 265.397 78.4522 265.036 78.0653 264.782C77.6784 264.528 77.2248 264.407 76.7178 264.407C76.2108 264.407 75.7304 264.541 75.3568 264.795C74.9833 265.049 74.6897 265.41 74.4763 265.892C74.2761 266.36 74.1694 266.922 74.1694 267.591V278.211C74.1694 278.867 74.2761 279.415 74.4763 279.883C74.6764 280.352 74.9699 280.713 75.3568 280.98C75.7438 281.234 76.1974 281.368 76.7044 281.368V281.355Z" fill="white"/>
<path d="M85.804 282.786L89.433 262.989H91.0608V265.183H90.5004L87.5384 282.786H85.804ZM87.6318 277.609L87.9254 276.085H93.1422L93.4224 277.609H87.6452H87.6318ZM93.5158 282.786L90.5538 265.183V262.989H91.5945L95.2503 282.786H93.5158Z" fill="white"/>
<path d="M100.467 282.786V262.989H104.376C105.23 262.989 105.937 263.136 106.524 263.431C107.098 263.725 107.538 264.166 107.819 264.742C108.099 265.317 108.246 266.066 108.246 266.962V270.36C108.246 271.336 108.045 272.112 107.659 272.687C107.272 273.262 106.698 273.663 105.964 273.877L108.646 282.759H106.765L104.256 274.212C104.19 274.212 104.123 274.212 104.056 274.212H102.202V282.773H100.48L100.467 282.786ZM102.188 272.727H104.243C104.977 272.727 105.524 272.54 105.897 272.165C106.271 271.791 106.458 271.216 106.458 270.426V266.788C106.458 265.999 106.271 265.424 105.897 265.049C105.524 264.675 104.963 264.487 104.203 264.487H102.188V272.714V272.727Z" fill="white"/>
<path d="M114.156 282.786V262.989H117.665C118.679 262.989 119.533 263.177 120.24 263.564C120.947 263.952 121.468 264.501 121.815 265.236C122.162 265.959 122.335 266.828 122.335 267.818V277.957C122.335 278.96 122.162 279.83 121.801 280.539C121.454 281.261 120.921 281.81 120.227 282.197C119.533 282.585 118.666 282.786 117.665 282.786H114.156ZM115.851 281.181H117.505C118.159 281.181 118.719 281.047 119.186 280.793C119.653 280.539 120 280.164 120.24 279.683C120.48 279.201 120.601 278.626 120.601 277.957V267.831C120.601 267.149 120.48 266.574 120.24 266.093C120 265.611 119.64 265.236 119.173 264.982C118.706 264.728 118.146 264.594 117.505 264.594H115.851V281.181Z" fill="white"/>
<path d="M140.094 282.987C139.253 282.987 138.506 282.786 137.865 282.398C137.225 282.01 136.718 281.448 136.371 280.726C136.024 280.004 135.837 279.161 135.837 278.171V267.631C135.837 266.628 136.011 265.772 136.371 265.049C136.731 264.327 137.225 263.765 137.865 263.377C138.506 262.989 139.253 262.789 140.107 262.789C140.961 262.789 141.681 262.989 142.322 263.377C142.975 263.765 143.469 264.327 143.829 265.049C144.19 265.772 144.376 266.641 144.376 267.644V278.185C144.376 279.174 144.19 280.031 143.829 280.739C143.469 281.462 142.962 282.01 142.322 282.411C141.681 282.813 140.934 283 140.094 283V282.987ZM140.094 281.355C140.614 281.355 141.068 281.234 141.454 280.98C141.841 280.726 142.135 280.365 142.348 279.897C142.549 279.429 142.655 278.867 142.655 278.198V267.577C142.655 266.922 142.549 266.347 142.348 265.879C142.148 265.397 141.841 265.036 141.454 264.782C141.068 264.528 140.614 264.407 140.107 264.407C139.6 264.407 139.12 264.541 138.746 264.795C138.372 265.049 138.079 265.41 137.865 265.892C137.665 266.36 137.559 266.922 137.559 267.591V278.211C137.559 278.867 137.665 279.415 137.865 279.883C138.066 280.352 138.359 280.713 138.746 280.98C139.133 281.234 139.587 281.368 140.094 281.368V281.355Z" fill="white"/>
<path d="M150.327 282.786V262.989H152.115L158.132 282.505L156.238 279.121H157.131L157.091 262.989H158.666V282.786H156.905L150.874 263.243L152.782 266.641H151.875L151.915 282.786H150.327Z" fill="white"/>
<path d="M168.859 283C168.005 283 167.272 282.799 166.645 282.398C166.018 281.997 165.537 281.448 165.204 280.739C164.87 280.044 164.71 279.201 164.71 278.238V267.497C164.71 266.561 164.883 265.745 165.217 265.036C165.551 264.327 166.031 263.778 166.658 263.364C167.285 262.962 168.019 262.762 168.859 262.762C169.647 262.762 170.34 262.949 170.941 263.337C171.541 263.725 172.008 264.26 172.355 264.942C172.702 265.624 172.875 266.44 172.902 267.363V269.664H171.208V267.296C171.208 266.708 171.114 266.2 170.927 265.758C170.741 265.317 170.474 264.982 170.114 264.742C169.767 264.501 169.353 264.38 168.873 264.38C168.366 264.38 167.939 264.514 167.579 264.782C167.218 265.049 166.938 265.41 166.738 265.865C166.538 266.32 166.444 266.855 166.444 267.457V278.278C166.444 278.907 166.538 279.442 166.738 279.91C166.938 280.365 167.218 280.726 167.579 280.98C167.939 281.234 168.366 281.355 168.873 281.355C169.38 281.355 169.767 281.234 170.1 281.007C170.434 280.78 170.701 280.445 170.887 280.004C171.074 279.576 171.168 279.054 171.194 278.452V276.071H172.902V278.412C172.889 279.322 172.715 280.124 172.382 280.806C172.048 281.488 171.581 282.024 170.981 282.411C170.38 282.799 169.673 282.987 168.873 282.987L168.859 283Z" fill="white"/>
<path d="M178.666 282.786V262.989H185.364V264.594H180.387V271.858H185.083V273.409H180.387V281.167H185.364V282.773H178.666V282.786Z" fill="white"/>
<path d="M202.882 283C202.028 283 201.294 282.799 200.667 282.398C200.04 281.997 199.56 281.448 199.226 280.739C198.893 280.044 198.732 279.201 198.732 278.238V267.497C198.732 266.561 198.906 265.745 199.239 265.036C199.573 264.327 200.053 263.778 200.68 263.364C201.307 262.962 202.041 262.762 202.882 262.762C203.669 262.762 204.363 262.949 204.963 263.337C205.564 263.725 206.031 264.26 206.378 264.942C206.724 265.624 206.898 266.44 206.925 267.363V269.664H205.23V267.296C205.23 266.708 205.137 266.2 204.95 265.758C204.763 265.317 204.496 264.982 204.136 264.742C203.789 264.501 203.376 264.38 202.895 264.38C202.388 264.38 201.961 264.514 201.601 264.782C201.241 265.049 200.961 265.41 200.76 265.865C200.56 266.32 200.467 266.855 200.467 267.457V278.278C200.467 278.907 200.56 279.442 200.76 279.91C200.961 280.365 201.241 280.726 201.601 280.98C201.961 281.234 202.388 281.355 202.895 281.355C203.402 281.355 203.789 281.234 204.123 281.007C204.456 280.78 204.723 280.445 204.91 280.004C205.097 279.576 205.19 279.054 205.217 278.452V276.071H206.925V278.412C206.911 279.322 206.738 280.124 206.404 280.806C206.071 281.488 205.604 282.024 205.003 282.411C204.403 282.799 203.696 282.987 202.895 282.987L202.882 283Z" fill="white"/>
<path d="M211.941 282.786L215.57 262.989H217.198V265.183H216.638L213.676 282.786H211.941ZM213.756 277.609L214.049 276.085H219.266L219.546 277.609H213.769H213.756ZM219.653 282.786L216.691 265.183V262.989H217.732L221.388 282.786H219.653Z" fill="white"/>
<path d="M226.751 282.786V262.989H228.432V282.786H226.751ZM227.592 275.269V273.663H230.087C230.914 273.663 231.554 273.463 231.981 273.075C232.408 272.687 232.635 272.085 232.635 271.269V266.962C232.635 266.159 232.422 265.571 231.981 265.17C231.541 264.768 230.914 264.568 230.087 264.568H227.592V262.976H230.274C231.181 262.976 231.928 263.123 232.542 263.431C233.155 263.738 233.609 264.18 233.916 264.768C234.223 265.357 234.37 266.093 234.37 266.989V271.242C234.37 272.125 234.223 272.874 233.916 273.476C233.609 274.078 233.155 274.52 232.542 274.814C231.928 275.108 231.181 275.255 230.274 275.255H227.592V275.269Z" fill="white"/>
<path d="M239.933 282.786V262.989H241.654V282.786H239.933Z" fill="white"/>
<path d="M249.98 282.786V264.594H246.885V262.989H254.77V264.594H251.674V282.786H249.98Z" fill="white"/>
<path d="M257.879 282.786L261.508 262.989H263.136V265.183H262.575L259.613 282.786H257.879ZM259.693 277.609L259.987 276.085H265.204L265.484 277.609H259.707H259.693ZM265.59 282.786L262.628 265.183V262.989H263.669L267.325 282.786H265.59Z" fill="white"/>
<path d="M272.528 282.786V262.989H274.25V281.181H279.106V282.786H272.515H272.528Z" fill="white"/>
</g>
<defs>
<clipPath id="clip0_52_139">
<rect width="280" height="283" fill="white"/>
</clipPath>
</defs>
</svg>
